<?xml version="1.0" encoding="utf-8"?>
<svg xmlns="http://www.w3.org/2000/svg" xmlns:xlink="http://www.w3.org/1999/xlink" width="600" height="400" viewBox="0 0 2400 1600">
<defs>
  <clipPath id="clip970">
    <rect x="0" y="0" width="2400" height="1600"/>
  </clipPath>
</defs>
<path clip-path="url(#clip970)" d="
M0 1600 L2400 1600 L2400 0 L0 0  Z
  " fill="#ffffff" fill-rule="evenodd" fill-opacity="1"/>
<defs>
  <clipPath id="clip971">
    <rect x="480" y="0" width="1681" height="1600"/>
  </clipPath>
</defs>
<path clip-path="url(#clip970)" d="
M262.551 1410.9 L2352.76 1410.9 L2352.76 47.2441 L262.551 47.2441  Z
  " fill="#ffffff" fill-rule="evenodd" fill-opacity="1"/>
<defs>
  <clipPath id="clip972">
    <rect x="262" y="47" width="2091" height="1365"/>
  </clipPath>
</defs>
<polyline clip-path="url(#clip972)" style="stroke:#000000; stroke-width:2; stroke-opacity:0.1; fill:none" points="
  321.708,1410.9 321.708,47.2441 
  "/>
<polyline clip-path="url(#clip972)" style="stroke:#000000; stroke-width:2; stroke-opacity:0.1; fill:none" points="
  768.849,1410.9 768.849,47.2441 
  "/>
<polyline clip-path="url(#clip972)" style="stroke:#000000; stroke-width:2; stroke-opacity:0.1; fill:none" points="
  1215.99,1410.9 1215.99,47.2441 
  "/>
<polyline clip-path="url(#clip972)" style="stroke:#000000; stroke-width:2; stroke-opacity:0.1; fill:none" points="
  1663.13,1410.9 1663.13,47.2441 
  "/>
<polyline clip-path="url(#clip972)" style="stroke:#000000; stroke-width:2; stroke-opacity:0.1; fill:none" points="
  2110.27,1410.9 2110.27,47.2441 
  "/>
<polyline clip-path="url(#clip970)" style="stroke:#000000; stroke-width:4; stroke-opacity:1; fill:none" points="
  262.551,1410.9 2352.76,1410.9 
  "/>
<polyline clip-path="url(#clip970)" style="stroke:#000000; stroke-width:4; stroke-opacity:1; fill:none" points="
  321.708,1410.9 321.708,1394.53 
  "/>
<polyline clip-path="url(#clip970)" style="stroke:#000000; stroke-width:4; stroke-opacity:1; fill:none" points="
  768.849,1410.9 768.849,1394.53 
  "/>
<polyline clip-path="url(#clip970)" style="stroke:#000000; stroke-width:4; stroke-opacity:1; fill:none" points="
  1215.99,1410.9 1215.99,1394.53 
  "/>
<polyline clip-path="url(#clip970)" style="stroke:#000000; stroke-width:4; stroke-opacity:1; fill:none" points="
  1663.13,1410.9 1663.13,1394.53 
  "/>
<polyline clip-path="url(#clip970)" style="stroke:#000000; stroke-width:4; stroke-opacity:1; fill:none" points="
  2110.27,1410.9 2110.27,1394.53 
  "/>
<path clip-path="url(#clip970)" d="M 0 0 M321.708 1440.09 Q318.097 1440.09 316.268 1443.65 Q314.463 1447.19 314.463 1454.32 Q314.463 1461.43 316.268 1464.99 Q318.097 1468.54 321.708 1468.54 Q325.342 1468.54 327.148 1464.99 Q328.976 1461.43 328.976 1454.32 Q328.976 1447.19 327.148 1443.65 Q325.342 1440.09 321.708 1440.09 M321.708 1436.38 Q327.518 1436.38 330.574 1440.99 Q333.652 1445.57 333.652 1454.32 Q333.652 1463.05 330.574 1467.66 Q327.518 1472.24 321.708 1472.24 Q315.898 1472.24 312.819 1467.66 Q309.764 1463.05 309.764 1454.32 Q309.764 1445.57 312.819 1440.99 Q315.898 1436.38 321.708 1436.38 Z" fill="#000000" fill-rule="evenodd" fill-opacity="1" /><path clip-path="url(#clip970)" d="M 0 0 M661.666 1458.54 L680.022 1458.54 L680.022 1462.48 L665.948 1462.48 L665.948 1470.95 Q666.966 1470.6 667.985 1470.44 Q669.003 1470.26 670.022 1470.26 Q675.809 1470.26 679.189 1473.43 Q682.568 1476.6 682.568 1482.02 Q682.568 1487.59 679.096 1490.7 Q675.624 1493.78 669.304 1493.78 Q667.128 1493.78 664.86 1493.4 Q662.615 1493.03 660.207 1492.29 L660.207 1487.59 Q662.291 1488.73 664.513 1489.28 Q666.735 1489.84 669.212 1489.84 Q673.216 1489.84 675.554 1487.73 Q677.892 1485.63 677.892 1482.02 Q677.892 1478.4 675.554 1476.3 Q673.216 1474.19 669.212 1474.19 Q667.337 1474.19 665.462 1474.61 Q663.61 1475.03 661.666 1475.9 L661.666 1458.54 Z" fill="#000000" fill-rule="evenodd" fill-opacity="1" /><path clip-path="url(#clip970)" d="M 0 0 M691.781 1487.22 L696.665 1487.22 L696.665 1493.1 L691.781 1493.1 L691.781 1487.22 Z" fill="#000000" fill-rule="evenodd" fill-opacity="1" /><path clip-path="url(#clip970)" d="M 0 0 M716.85 1461.62 Q713.239 1461.62 711.411 1465.19 Q709.605 1468.73 709.605 1475.86 Q709.605 1482.97 711.411 1486.53 Q713.239 1490.07 716.85 1490.07 Q720.485 1490.07 722.29 1486.53 Q724.119 1482.97 724.119 1475.86 Q724.119 1468.73 722.29 1465.19 Q720.485 1461.62 716.85 1461.62 M716.85 1457.92 Q722.661 1457.92 725.716 1462.53 Q728.795 1467.11 728.795 1475.86 Q728.795 1484.59 725.716 1489.19 Q722.661 1493.78 716.85 1493.78 Q711.04 1493.78 707.962 1489.19 Q704.906 1484.59 704.906 1475.86 Q704.906 1467.11 707.962 1462.53 Q711.04 1457.92 716.85 1457.92 Z" fill="#000000" fill-rule="evenodd" fill-opacity="1" /><path clip-path="url(#clip970)" d="M 0 0 M747.012 1461.62 Q743.401 1461.62 741.572 1465.19 Q739.767 1468.73 739.767 1475.86 Q739.767 1482.97 741.572 1486.53 Q743.401 1490.07 747.012 1490.07 Q750.647 1490.07 752.452 1486.53 Q754.281 1482.97 754.281 1475.86 Q754.281 1468.73 752.452 1465.19 Q750.647 1461.62 747.012 1461.62 M747.012 1457.92 Q752.822 1457.92 755.878 1462.53 Q758.957 1467.11 758.957 1475.86 Q758.957 1484.59 755.878 1489.19 Q752.822 1493.78 747.012 1493.78 Q741.202 1493.78 738.123 1489.19 Q735.068 1484.59 735.068 1475.86 Q735.068 1467.11 738.123 1462.53 Q741.202 1457.92 747.012 1457.92 Z" fill="#000000" fill-rule="evenodd" fill-opacity="1" /><path clip-path="url(#clip970)" d="M 0 0 M795.345 1467.64 L784.767 1478.27 L795.345 1488.84 L792.591 1491.65 L781.966 1481.02 L771.341 1491.65 L768.609 1488.84 L779.165 1478.27 L768.609 1467.64 L771.341 1464.84 L781.966 1475.47 L792.591 1464.84 L795.345 1467.64 Z" fill="#000000" fill-rule="evenodd" fill-opacity="1" /><path clip-path="url(#clip970)" d="M 0 0 M807.706 1489.17 L815.345 1489.17 L815.345 1462.8 L807.035 1464.47 L807.035 1460.21 L815.299 1458.54 L819.975 1458.54 L819.975 1489.17 L827.614 1489.17 L827.614 1493.1 L807.706 1493.1 L807.706 1489.17 Z" fill="#000000" fill-rule="evenodd" fill-opacity="1" /><path clip-path="url(#clip970)" d="M 0 0 M847.058 1461.62 Q843.447 1461.62 841.618 1465.19 Q839.813 1468.73 839.813 1475.86 Q839.813 1482.97 841.618 1486.53 Q843.447 1490.07 847.058 1490.07 Q850.692 1490.07 852.498 1486.53 Q854.327 1482.97 854.327 1475.86 Q854.327 1468.73 852.498 1465.19 Q850.692 1461.62 847.058 1461.62 M847.058 1457.92 Q852.868 1457.92 855.924 1462.53 Q859.002 1467.11 859.002 1475.86 Q859.002 1484.59 855.924 1489.19 Q852.868 1493.78 847.058 1493.78 Q841.248 1493.78 838.169 1489.19 Q835.114 1484.59 835.114 1475.86 Q835.114 1467.11 838.169 1462.53 Q841.248 1457.92 847.058 1457.92 Z" fill="#000000" fill-rule="evenodd" fill-opacity="1" /><path clip-path="url(#clip970)" d="M 0 0 M871.698 1450.55 Q874.425 1451.14 875.948 1452.98 Q877.49 1454.82 877.49 1457.53 Q877.49 1461.69 874.632 1463.96 Q871.773 1466.24 866.507 1466.24 Q864.739 1466.24 862.858 1465.88 Q860.996 1465.54 859.002 1464.85 L859.002 1461.18 Q860.582 1462.1 862.463 1462.57 Q864.344 1463.04 866.394 1463.04 Q869.967 1463.04 871.829 1461.63 Q873.71 1460.22 873.71 1457.53 Q873.71 1455.05 871.961 1453.66 Q870.231 1452.25 867.127 1452.25 L863.855 1452.25 L863.855 1449.12 L867.278 1449.12 Q870.08 1449.12 871.566 1448.01 Q873.052 1446.89 873.052 1444.78 Q873.052 1442.62 871.51 1441.47 Q869.986 1440.3 867.127 1440.3 Q865.566 1440.3 863.78 1440.64 Q861.993 1440.98 859.849 1441.69 L859.849 1438.31 Q862.012 1437.71 863.892 1437.41 Q865.792 1437.11 867.466 1437.11 Q871.792 1437.11 874.312 1439.08 Q876.832 1441.04 876.832 1444.38 Q876.832 1446.72 875.497 1448.33 Q874.161 1449.93 871.698 1450.55 Z" fill="#000000" fill-rule="evenodd" fill-opacity="1" /><path clip-path="url(#clip970)" d="M 0 0 M1107.81 1489.17 L1115.45 1489.17 L1115.45 1462.8 L1107.14 1464.47 L1107.14 1460.21 L1115.4 1458.54 L1120.08 1458.54 L1120.08 1489.17 L1127.71 1489.17 L1127.71 1493.1 L1107.81 1493.1 L1107.81 1489.17 Z" fill="#000000" fill-rule="evenodd" fill-opacity="1" /><path clip-path="url(#clip970)" d="M 0 0 M1137.16 1487.22 L1142.04 1487.22 L1142.04 1493.1 L1137.16 1493.1 L1137.16 1487.22 Z" fill="#000000" fill-rule="evenodd" fill-opacity="1" /><path clip-path="url(#clip970)" d="M 0 0 M1162.23 1461.62 Q1158.62 1461.62 1156.79 1465.19 Q1154.98 1468.73 1154.98 1475.86 Q1154.98 1482.97 1156.79 1486.53 Q1158.62 1490.07 1162.23 1490.07 Q1165.86 1490.07 1167.67 1486.53 Q1169.5 1482.97 1169.5 1475.86 Q1169.5 1468.73 1167.67 1465.19 Q1165.86 1461.62 1162.23 1461.62 M1162.23 1457.92 Q1168.04 1457.92 1171.09 1462.53 Q1174.17 1467.11 1174.17 1475.86 Q1174.17 1484.59 1171.09 1489.19 Q1168.04 1493.78 1162.23 1493.78 Q1156.42 1493.78 1153.34 1489.19 Q1150.28 1484.59 1150.28 1475.86 Q1150.28 1467.11 1153.34 1462.53 Q1156.42 1457.92 1162.23 1457.92 Z" fill="#000000" fill-rule="evenodd" fill-opacity="1" /><path clip-path="url(#clip970)" d="M 0 0 M1192.39 1461.62 Q1188.78 1461.62 1186.95 1465.19 Q1185.14 1468.73 1185.14 1475.86 Q1185.14 1482.97 1186.95 1486.53 Q1188.78 1490.07 1192.39 1490.07 Q1196.02 1490.07 1197.83 1486.53 Q1199.66 1482.97 1199.66 1475.86 Q1199.66 1468.73 1197.83 1465.19 Q1196.02 1461.62 1192.39 1461.62 M1192.39 1457.92 Q1198.2 1457.92 1201.26 1462.53 Q1204.33 1467.11 1204.33 1475.86 Q1204.33 1484.59 1201.26 1489.19 Q1198.2 1493.78 1192.39 1493.78 Q1186.58 1493.78 1183.5 1489.19 Q1180.45 1484.59 1180.45 1475.86 Q1180.45 1467.11 1183.5 1462.53 Q1186.58 1457.92 1192.39 1457.92 Z" fill="#000000" fill-rule="evenodd" fill-opacity="1" /><path clip-path="url(#clip970)" d="M 0 0 M1240.72 1467.64 L1230.14 1478.27 L1240.72 1488.84 L1237.97 1491.65 L1227.34 1481.02 L1216.72 1491.65 L1213.99 1488.84 L1224.54 1478.27 L1213.99 1467.64 L1216.72 1464.84 L1227.34 1475.47 L1237.97 1464.84 L1240.72 1467.64 Z" fill="#000000" fill-rule="evenodd" fill-opacity="1" /><path clip-path="url(#clip970)" d="M 0 0 M1253.08 1489.17 L1260.72 1489.17 L1260.72 1462.8 L1252.41 1464.47 L1252.41 1460.21 L1260.68 1458.54 L1265.35 1458.54 L1265.35 1489.17 L1272.99 1489.17 L1272.99 1493.1 L1253.08 1493.1 L1253.08 1489.17 Z" fill="#000000" fill-rule="evenodd" fill-opacity="1" /><path clip-path="url(#clip970)" d="M 0 0 M1292.44 1461.62 Q1288.82 1461.62 1287 1465.19 Q1285.19 1468.73 1285.19 1475.86 Q1285.19 1482.97 1287 1486.53 Q1288.82 1490.07 1292.44 1490.07 Q1296.07 1490.07 1297.88 1486.53 Q1299.7 1482.97 1299.7 1475.86 Q1299.7 1468.73 1297.88 1465.19 Q1296.07 1461.62 1292.44 1461.62 M1292.44 1457.92 Q1298.25 1457.92 1301.3 1462.53 Q1304.38 1467.11 1304.38 1475.86 Q1304.38 1484.59 1301.3 1489.19 Q1298.25 1493.78 1292.44 1493.78 Q1286.63 1493.78 1283.55 1489.19 Q1280.49 1484.59 1280.49 1475.86 Q1280.49 1467.11 1283.55 1462.53 Q1286.63 1457.92 1292.44 1457.92 Z" fill="#000000" fill-rule="evenodd" fill-opacity="1" /><path clip-path="url(#clip970)" d="M 0 0 M1317.06 1440.92 L1307.46 1455.91 L1317.06 1455.91 L1317.06 1440.92 M1316.06 1437.61 L1320.84 1437.61 L1320.84 1455.91 L1324.84 1455.91 L1324.84 1459.07 L1320.84 1459.07 L1320.84 1465.69 L1317.06 1465.69 L1317.06 1459.07 L1304.38 1459.07 L1304.38 1455.41 L1316.06 1437.61 Z" fill="#000000" fill-rule="evenodd" fill-opacity="1" /><path clip-path="url(#clip970)" d="M 0 0 M1554.95 1489.17 L1562.59 1489.17 L1562.59 1462.8 L1554.28 1464.47 L1554.28 1460.21 L1562.54 1458.54 L1567.22 1458.54 L1567.22 1489.17 L1574.86 1489.17 L1574.86 1493.1 L1554.95 1493.1 L1554.95 1489.17 Z" fill="#000000" fill-rule="evenodd" fill-opacity="1" /><path clip-path="url(#clip970)" d="M 0 0 M1584.3 1487.22 L1589.18 1487.22 L1589.18 1493.1 L1584.3 1493.1 L1584.3 1487.22 Z" fill="#000000" fill-rule="evenodd" fill-opacity="1" /><path clip-path="url(#clip970)" d="M 0 0 M1599.42 1458.54 L1617.77 1458.54 L1617.77 1462.48 L1603.7 1462.48 L1603.7 1470.95 Q1604.72 1470.6 1605.74 1470.44 Q1606.75 1470.26 1607.77 1470.26 Q1613.56 1470.26 1616.94 1473.43 Q1620.32 1476.6 1620.32 1482.02 Q1620.32 1487.59 1616.85 1490.7 Q1613.37 1493.78 1607.05 1493.78 Q1604.88 1493.78 1602.61 1493.4 Q1600.36 1493.03 1597.96 1492.29 L1597.96 1487.59 Q1600.04 1488.73 1602.26 1489.28 Q1604.49 1489.84 1606.96 1489.84 Q1610.97 1489.84 1613.3 1487.73 Q1615.64 1485.63 1615.64 1482.02 Q1615.64 1478.4 1613.3 1476.3 Q1610.97 1474.19 1606.96 1474.19 Q1605.09 1474.19 1603.21 1474.61 Q1601.36 1475.03 1599.42 1475.9 L1599.42 1458.54 Z" fill="#000000" fill-rule="evenodd" fill-opacity="1" /><path clip-path="url(#clip970)" d="M 0 0 M1639.53 1461.62 Q1635.92 1461.62 1634.09 1465.19 Q1632.29 1468.73 1632.29 1475.86 Q1632.29 1482.97 1634.09 1486.53 Q1635.92 1490.07 1639.53 1490.07 Q1643.17 1490.07 1644.97 1486.53 Q1646.8 1482.97 1646.8 1475.86 Q1646.8 1468.73 1644.97 1465.19 Q1643.17 1461.62 1639.53 1461.62 M1639.53 1457.92 Q1645.34 1457.92 1648.4 1462.53 Q1651.48 1467.11 1651.48 1475.86 Q1651.48 1484.59 1648.4 1489.19 Q1645.34 1493.78 1639.53 1493.78 Q1633.72 1493.78 1630.64 1489.19 Q1627.59 1484.59 1627.59 1475.86 Q1627.59 1467.11 1630.64 1462.53 Q1633.72 1457.92 1639.53 1457.92 Z" fill="#000000" fill-rule="evenodd" fill-opacity="1" /><path clip-path="url(#clip970)" d="M 0 0 M1687.86 1467.64 L1677.29 1478.27 L1687.86 1488.84 L1685.11 1491.65 L1674.48 1481.02 L1663.86 1491.65 L1661.13 1488.84 L1671.68 1478.27 L1661.13 1467.64 L1663.86 1464.84 L1674.48 1475.47 L1685.11 1464.84 L1687.86 1467.64 Z" fill="#000000" fill-rule="evenodd" fill-opacity="1" /><path clip-path="url(#clip970)" d="M 0 0 M1700.23 1489.17 L1707.86 1489.17 L1707.86 1462.8 L1699.55 1464.47 L1699.55 1460.21 L1707.82 1458.54 L1712.49 1458.54 L1712.49 1489.17 L1720.13 1489.17 L1720.13 1493.1 L1700.23 1493.1 L1700.23 1489.17 Z" fill="#000000" fill-rule="evenodd" fill-opacity="1" /><path clip-path="url(#clip970)" d="M 0 0 M1739.58 1461.62 Q1735.97 1461.62 1734.14 1465.19 Q1732.33 1468.73 1732.33 1475.86 Q1732.33 1482.97 1734.14 1486.53 Q1735.97 1490.07 1739.58 1490.07 Q1743.21 1490.07 1745.02 1486.53 Q1746.85 1482.97 1746.85 1475.86 Q1746.85 1468.73 1745.02 1465.19 Q1743.21 1461.62 1739.58 1461.62 M1739.58 1457.92 Q1745.39 1457.92 1748.44 1462.53 Q1751.52 1467.11 1751.52 1475.86 Q1751.52 1484.59 1748.44 1489.19 Q1745.39 1493.78 1739.58 1493.78 Q1733.77 1493.78 1730.69 1489.19 Q1727.63 1484.59 1727.63 1475.86 Q1727.63 1467.11 1730.69 1462.53 Q1733.77 1457.92 1739.58 1457.92 Z" fill="#000000" fill-rule="evenodd" fill-opacity="1" /><path clip-path="url(#clip970)" d="M 0 0 M1764.2 1440.92 L1754.61 1455.91 L1764.2 1455.91 L1764.2 1440.92 M1763.2 1437.61 L1767.98 1437.61 L1767.98 1455.91 L1771.98 1455.91 L1771.98 1459.07 L1767.98 1459.07 L1767.98 1465.69 L1764.2 1465.69 L1764.2 1459.07 L1751.52 1459.07 L1751.52 1455.41 L1763.2 1437.61 Z" fill="#000000" fill-rule="evenodd" fill-opacity="1" /><path clip-path="url(#clip970)" d="M 0 0 M2006.17 1489.17 L2022.49 1489.17 L2022.49 1493.1 L2000.55 1493.1 L2000.55 1489.17 Q2003.21 1486.41 2007.8 1481.78 Q2012.4 1477.13 2013.58 1475.79 Q2015.83 1473.27 2016.71 1471.53 Q2017.61 1469.77 2017.61 1468.08 Q2017.61 1465.33 2015.67 1463.59 Q2013.74 1461.85 2010.64 1461.85 Q2008.44 1461.85 2005.99 1462.62 Q2003.56 1463.38 2000.78 1464.93 L2000.78 1460.21 Q2003.61 1459.08 2006.06 1458.5 Q2008.51 1457.92 2010.55 1457.92 Q2015.92 1457.92 2019.11 1460.6 Q2022.31 1463.29 2022.31 1467.78 Q2022.31 1469.91 2021.5 1471.83 Q2020.71 1473.73 2018.61 1476.32 Q2018.03 1476.99 2014.92 1480.21 Q2011.82 1483.4 2006.17 1489.17 Z" fill="#000000" fill-rule="evenodd" fill-opacity="1" /><path clip-path="url(#clip970)" d="M 0 0 M2032.31 1487.22 L2037.19 1487.22 L2037.19 1493.1 L2032.31 1493.1 L2032.31 1487.22 Z" fill="#000000" fill-rule="evenodd" fill-opacity="1" /><path clip-path="url(#clip970)" d="M 0 0 M2057.38 1461.62 Q2053.77 1461.62 2051.94 1465.19 Q2050.13 1468.73 2050.13 1475.86 Q2050.13 1482.97 2051.94 1486.53 Q2053.77 1490.07 2057.38 1490.07 Q2061.01 1490.07 2062.82 1486.53 Q2064.65 1482.97 2064.65 1475.86 Q2064.65 1468.73 2062.82 1465.19 Q2061.01 1461.62 2057.38 1461.62 M2057.38 1457.92 Q2063.19 1457.92 2066.24 1462.53 Q2069.32 1467.11 2069.32 1475.86 Q2069.32 1484.59 2066.24 1489.19 Q2063.19 1493.78 2057.38 1493.78 Q2051.57 1493.78 2048.49 1489.19 Q2045.43 1484.59 2045.43 1475.86 Q2045.43 1467.11 2048.49 1462.53 Q2051.57 1457.92 2057.38 1457.92 Z" fill="#000000" fill-rule="evenodd" fill-opacity="1" /><path clip-path="url(#clip970)" d="M 0 0 M2087.54 1461.62 Q2083.93 1461.62 2082.1 1465.19 Q2080.29 1468.73 2080.29 1475.86 Q2080.29 1482.97 2082.1 1486.53 Q2083.93 1490.07 2087.54 1490.07 Q2091.17 1490.07 2092.98 1486.53 Q2094.81 1482.97 2094.81 1475.86 Q2094.81 1468.73 2092.98 1465.19 Q2091.17 1461.62 2087.54 1461.62 M2087.54 1457.92 Q2093.35 1457.92 2096.41 1462.53 Q2099.48 1467.11 2099.48 1475.86 Q2099.48 1484.59 2096.41 1489.19 Q2093.35 1493.78 2087.54 1493.78 Q2081.73 1493.78 2078.65 1489.19 Q2075.6 1484.59 2075.6 1475.86 Q2075.6 1467.11 2078.65 1462.53 Q2081.73 1457.92 2087.54 1457.92 Z" fill="#000000" fill-rule="evenodd" fill-opacity="1" /><path clip-path="url(#clip970)" d="M 0 0 M2135.87 1467.64 L2125.29 1478.27 L2135.87 1488.84 L2133.12 1491.65 L2122.49 1481.02 L2111.87 1491.65 L2109.14 1488.84 L2119.69 1478.27 L2109.14 1467.64 L2111.87 1464.84 L2122.49 1475.47 L2133.12 1464.84 L2135.87 1467.64 Z" fill="#000000" fill-rule="evenodd" fill-opacity="1" /><path clip-path="url(#clip970)" d="M 0 0 M2148.23 1489.17 L2155.87 1489.17 L2155.87 1462.8 L2147.56 1464.47 L2147.56 1460.21 L2155.83 1458.54 L2160.5 1458.54 L2160.5 1489.17 L2168.14 1489.17 L2168.14 1493.1 L2148.23 1493.1 L2148.23 1489.17 Z" fill="#000000" fill-rule="evenodd" fill-opacity="1" /><path clip-path="url(#clip970)" d="M 0 0 M2187.59 1461.62 Q2183.97 1461.62 2182.15 1465.19 Q2180.34 1468.73 2180.34 1475.86 Q2180.34 1482.97 2182.15 1486.53 Q2183.97 1490.07 2187.59 1490.07 Q2191.22 1490.07 2193.03 1486.53 Q2194.85 1482.97 2194.85 1475.86 Q2194.85 1468.73 2193.03 1465.19 Q2191.22 1461.62 2187.59 1461.62 M2187.59 1457.92 Q2193.4 1457.92 2196.45 1462.53 Q2199.53 1467.11 2199.53 1475.86 Q2199.53 1484.59 2196.45 1489.19 Q2193.4 1493.78 2187.59 1493.78 Q2181.78 1493.78 2178.7 1489.19 Q2175.64 1484.59 2175.64 1475.86 Q2175.64 1467.11 2178.7 1462.53 Q2181.78 1457.92 2187.59 1457.92 Z" fill="#000000" fill-rule="evenodd" fill-opacity="1" /><path clip-path="url(#clip970)" d="M 0 0 M2212.21 1440.92 L2202.61 1455.91 L2212.21 1455.91 L2212.21 1440.92 M2211.21 1437.61 L2215.99 1437.61 L2215.99 1455.91 L2219.99 1455.91 L2219.99 1459.07 L2215.99 1459.07 L2215.99 1465.69 L2212.21 1465.69 L2212.21 1459.07 L2199.53 1459.07 L2199.53 1455.41 L2211.21 1437.61 Z" fill="#000000" fill-rule="evenodd" fill-opacity="1" /><path clip-path="url(#clip970)" d="M 0 0 M1069.75 1526.67 L1097.06 1526.67 L1097.06 1532.08 L1076.18 1532.08 L1076.18 1546.08 L1095.02 1546.08 L1095.02 1551.49 L1076.18 1551.49 L1076.18 1574.19 L1069.75 1574.19 L1069.75 1526.67 Z" fill="#000000" fill-rule="evenodd" fill-opacity="1" /><path clip-path="url(#clip970)" d="M 0 0 M1122.9 1544.01 Q1121.92 1543.44 1120.74 1543.18 Q1119.59 1542.9 1118.19 1542.9 Q1113.23 1542.9 1110.56 1546.14 Q1107.91 1549.36 1107.91 1555.41 L1107.91 1574.19 L1102.03 1574.19 L1102.03 1538.54 L1107.91 1538.54 L1107.91 1544.08 Q1109.76 1540.83 1112.72 1539.27 Q1115.68 1537.68 1119.91 1537.68 Q1120.52 1537.68 1121.25 1537.77 Q1121.98 1537.84 1122.87 1538 L1122.9 1544.01 Z" fill="#000000" fill-rule="evenodd" fill-opacity="1" /><path clip-path="url(#clip970)" d="M 0 0 M1158.11 1554.9 L1158.11 1557.76 L1131.18 1557.76 Q1131.56 1563.81 1134.81 1566.99 Q1138.09 1570.14 1143.91 1570.14 Q1147.29 1570.14 1150.44 1569.32 Q1153.62 1568.49 1156.74 1566.83 L1156.74 1572.37 Q1153.59 1573.71 1150.28 1574.41 Q1146.97 1575.11 1143.56 1575.11 Q1135.03 1575.11 1130.03 1570.14 Q1125.07 1565.18 1125.07 1556.71 Q1125.07 1547.96 1129.78 1542.83 Q1134.52 1537.68 1142.54 1537.68 Q1149.74 1537.68 1153.91 1542.33 Q1158.11 1546.94 1158.11 1554.9 M1152.25 1553.18 Q1152.19 1548.37 1149.55 1545.51 Q1146.94 1542.64 1142.61 1542.64 Q1137.71 1542.64 1134.75 1545.41 Q1131.82 1548.18 1131.37 1553.21 L1152.25 1553.18 Z" fill="#000000" fill-rule="evenodd" fill-opacity="1" /><path clip-path="url(#clip970)" d="M 0 0 M1171.22 1556.39 Q1171.22 1562.85 1173.86 1566.55 Q1176.54 1570.21 1181.18 1570.21 Q1185.83 1570.21 1188.5 1566.55 Q1191.18 1562.85 1191.18 1556.39 Q1191.18 1549.93 1188.5 1546.27 Q1185.83 1542.58 1181.18 1542.58 Q1176.54 1542.58 1173.86 1546.27 Q1171.22 1549.93 1171.22 1556.39 M1191.18 1568.84 Q1189.33 1572.02 1186.5 1573.58 Q1183.7 1575.11 1179.75 1575.11 Q1173.29 1575.11 1169.22 1569.95 Q1165.17 1564.8 1165.17 1556.39 Q1165.17 1547.99 1169.22 1542.83 Q1173.29 1537.68 1179.75 1537.68 Q1183.7 1537.68 1186.5 1539.24 Q1189.33 1540.77 1191.18 1543.95 L1191.18 1538.54 L1197.03 1538.54 L1197.03 1587.74 L1191.18 1587.74 L1191.18 1568.84 Z" fill="#000000" fill-rule="evenodd" fill-opacity="1" /><path clip-path="url(#clip970)" d="M 0 0 M1208.49 1560.12 L1208.49 1538.54 L1214.35 1538.54 L1214.35 1559.89 Q1214.35 1564.96 1216.32 1567.5 Q1218.29 1570.02 1222.24 1570.02 Q1226.98 1570.02 1229.72 1566.99 Q1232.49 1563.97 1232.49 1558.75 L1232.49 1538.54 L1238.35 1538.54 L1238.35 1574.19 L1232.49 1574.19 L1232.49 1568.71 Q1230.36 1571.96 1227.53 1573.55 Q1224.72 1575.11 1221 1575.11 Q1214.86 1575.11 1211.67 1571.29 Q1208.49 1567.47 1208.49 1560.12 M1223.23 1537.68 L1223.23 1537.68 Z" fill="#000000" fill-rule="evenodd" fill-opacity="1" /><path clip-path="url(#clip970)" d="M 0 0 M1280.9 1554.9 L1280.9 1557.76 L1253.97 1557.76 Q1254.36 1563.81 1257.6 1566.99 Q1260.88 1570.14 1266.71 1570.14 Q1270.08 1570.14 1273.23 1569.32 Q1276.41 1568.49 1279.53 1566.83 L1279.53 1572.37 Q1276.38 1573.71 1273.07 1574.41 Q1269.76 1575.11 1266.36 1575.11 Q1257.83 1575.11 1252.83 1570.14 Q1247.86 1565.18 1247.86 1556.71 Q1247.86 1547.96 1252.57 1542.83 Q1257.32 1537.68 1265.34 1537.68 Q1272.53 1537.68 1276.7 1542.33 Q1280.9 1546.94 1280.9 1554.9 M1275.05 1553.18 Q1274.98 1548.37 1272.34 1545.51 Q1269.73 1542.64 1265.4 1542.64 Q1260.5 1542.64 1257.54 1545.41 Q1254.61 1548.18 1254.17 1553.21 L1275.05 1553.18 Z" fill="#000000" fill-rule="evenodd" fill-opacity="1" /><path clip-path="url(#clip970)" d="M 0 0 M1320.15 1552.67 L1320.15 1574.19 L1314.29 1574.19 L1314.29 1552.86 Q1314.29 1547.8 1312.32 1545.29 Q1310.34 1542.77 1306.4 1542.77 Q1301.65 1542.77 1298.92 1545.79 Q1296.18 1548.82 1296.18 1554.04 L1296.18 1574.19 L1290.29 1574.19 L1290.29 1538.54 L1296.18 1538.54 L1296.18 1544.08 Q1298.28 1540.86 1301.11 1539.27 Q1303.98 1537.68 1307.7 1537.68 Q1313.84 1537.68 1317 1541.5 Q1320.15 1545.29 1320.15 1552.67 Z" fill="#000000" fill-rule="evenodd" fill-opacity="1" /><path clip-path="url(#clip970)" d="M 0 0 M1346.66 1577.5 Q1344.18 1583.86 1341.82 1585.8 Q1339.47 1587.74 1335.52 1587.74 L1330.84 1587.74 L1330.84 1582.84 L1334.28 1582.84 Q1336.7 1582.84 1338.03 1581.7 Q1339.37 1580.55 1340.99 1576.29 L1342.04 1573.61 L1327.63 1538.54 L1333.83 1538.54 L1344.97 1566.42 L1356.11 1538.54 L1362.32 1538.54 L1346.66 1577.5 Z" fill="#000000" fill-rule="evenodd" fill-opacity="1" /><path clip-path="url(#clip970)" d="M 0 0 M1391.12 1538.54 L1396.98 1538.54 L1396.98 1574.19 L1391.12 1574.19 L1391.12 1538.54 M1391.12 1524.66 L1396.98 1524.66 L1396.98 1532.08 L1391.12 1532.08 L1391.12 1524.66 Z" fill="#000000" fill-rule="evenodd" fill-opacity="1" /><path clip-path="url(#clip970)" d="M 0 0 M1438.87 1552.67 L1438.87 1574.19 L1433.01 1574.19 L1433.01 1552.86 Q1433.01 1547.8 1431.04 1545.29 Q1429.06 1542.77 1425.12 1542.77 Q1420.37 1542.77 1417.64 1545.79 Q1414.9 1548.82 1414.9 1554.04 L1414.9 1574.19 L1409.01 1574.19 L1409.01 1538.54 L1414.9 1538.54 L1414.9 1544.08 Q1417 1540.86 1419.83 1539.27 Q1422.7 1537.68 1426.42 1537.68 Q1432.56 1537.68 1435.72 1541.5 Q1438.87 1545.29 1438.87 1552.67 Z" fill="#000000" fill-rule="evenodd" fill-opacity="1" /><path clip-path="url(#clip970)" d="M 0 0 M1471.52 1526.67 L1477.95 1526.67 L1477.95 1546.14 L1501.31 1546.14 L1501.31 1526.67 L1507.74 1526.67 L1507.74 1574.19 L1501.31 1574.19 L1501.31 1551.56 L1477.95 1551.56 L1477.95 1574.19 L1471.52 1574.19 L1471.52 1526.67 Z" fill="#000000" fill-rule="evenodd" fill-opacity="1" /><path clip-path="url(#clip970)" d="M 0 0 M1517.74 1538.54 L1545.56 1538.54 L1545.56 1543.88 L1523.53 1569.51 L1545.56 1569.51 L1545.56 1574.19 L1516.94 1574.19 L1516.94 1568.84 L1538.97 1543.22 L1517.74 1543.22 L1517.74 1538.54 Z" fill="#000000" fill-rule="evenodd" fill-opacity="1" /><polyline clip-path="url(#clip972)" style="stroke:#000000; stroke-width:2; stroke-opacity:0.1; fill:none" points="
  262.551,1372.3 2352.76,1372.3 
  "/>
<polyline clip-path="url(#clip972)" style="stroke:#000000; stroke-width:2; stroke-opacity:0.1; fill:none" points="
  262.551,1080.65 2352.76,1080.65 
  "/>
<polyline clip-path="url(#clip972)" style="stroke:#000000; stroke-width:2; stroke-opacity:0.1; fill:none" points="
  262.551,788.999 2352.76,788.999 
  "/>
<polyline clip-path="url(#clip972)" style="stroke:#000000; stroke-width:2; stroke-opacity:0.1; fill:none" points="
  262.551,497.348 2352.76,497.348 
  "/>
<polyline clip-path="url(#clip972)" style="stroke:#000000; stroke-width:2; stroke-opacity:0.1; fill:none" points="
  262.551,205.696 2352.76,205.696 
  "/>
<polyline clip-path="url(#clip970)" style="stroke:#000000; stroke-width:4; stroke-opacity:1; fill:none" points="
  262.551,1410.9 262.551,47.2441 
  "/>
<polyline clip-path="url(#clip970)" style="stroke:#000000; stroke-width:4; stroke-opacity:1; fill:none" points="
  262.551,1372.3 287.634,1372.3 
  "/>
<polyline clip-path="url(#clip970)" style="stroke:#000000; stroke-width:4; stroke-opacity:1; fill:none" points="
  262.551,1080.65 287.634,1080.65 
  "/>
<polyline clip-path="url(#clip970)" style="stroke:#000000; stroke-width:4; stroke-opacity:1; fill:none" points="
  262.551,788.999 287.634,788.999 
  "/>
<polyline clip-path="url(#clip970)" style="stroke:#000000; stroke-width:4; stroke-opacity:1; fill:none" points="
  262.551,497.348 287.634,497.348 
  "/>
<polyline clip-path="url(#clip970)" style="stroke:#000000; stroke-width:4; stroke-opacity:1; fill:none" points="
  262.551,205.696 287.634,205.696 
  "/>
<path clip-path="url(#clip970)" d="M 0 0 M214.607 1358.1 Q210.996 1358.1 209.167 1361.67 Q207.362 1365.21 207.362 1372.34 Q207.362 1379.44 209.167 1383.01 Q210.996 1386.55 214.607 1386.55 Q218.241 1386.55 220.047 1383.01 Q221.875 1379.44 221.875 1372.34 Q221.875 1365.21 220.047 1361.67 Q218.241 1358.1 214.607 1358.1 M214.607 1354.4 Q220.417 1354.4 223.473 1359 Q226.551 1363.59 226.551 1372.34 Q226.551 1381.06 223.473 1385.67 Q220.417 1390.25 214.607 1390.25 Q208.797 1390.25 205.718 1385.67 Q202.662 1381.06 202.662 1372.34 Q202.662 1363.59 205.718 1359 Q208.797 1354.4 214.607 1354.4 Z" fill="#000000" fill-rule="evenodd" fill-opacity="1" /><path clip-path="url(#clip970)" d="M 0 0 M148.311 1094 L164.63 1094 L164.63 1097.93 L142.686 1097.93 L142.686 1094 Q145.348 1091.24 149.931 1086.61 Q154.538 1081.96 155.718 1080.62 Q157.964 1078.09 158.843 1076.36 Q159.746 1074.6 159.746 1072.91 Q159.746 1070.15 157.802 1068.42 Q155.88 1066.68 152.778 1066.68 Q150.579 1066.68 148.126 1067.45 Q145.695 1068.21 142.917 1069.76 L142.917 1065.04 Q145.741 1063.9 148.195 1063.32 Q150.649 1062.75 152.686 1062.75 Q158.056 1062.75 161.251 1065.43 Q164.445 1068.12 164.445 1072.61 Q164.445 1074.74 163.635 1076.66 Q162.848 1078.56 160.741 1081.15 Q160.163 1081.82 157.061 1085.04 Q153.959 1088.23 148.311 1094 Z" fill="#000000" fill-rule="evenodd" fill-opacity="1" /><path clip-path="url(#clip970)" d="M 0 0 M174.491 1063.37 L192.848 1063.37 L192.848 1067.31 L178.774 1067.31 L178.774 1075.78 Q179.792 1075.43 180.811 1075.27 Q181.829 1075.08 182.848 1075.08 Q188.635 1075.08 192.014 1078.26 Q195.394 1081.43 195.394 1086.84 Q195.394 1092.42 191.922 1095.52 Q188.45 1098.6 182.13 1098.6 Q179.954 1098.6 177.686 1098.23 Q175.44 1097.86 173.033 1097.12 L173.033 1092.42 Q175.116 1093.56 177.339 1094.11 Q179.561 1094.67 182.038 1094.67 Q186.042 1094.67 188.38 1092.56 Q190.718 1090.45 190.718 1086.84 Q190.718 1083.23 188.38 1081.13 Q186.042 1079.02 182.038 1079.02 Q180.163 1079.02 178.288 1079.44 Q176.436 1079.85 174.491 1080.73 L174.491 1063.37 Z" fill="#000000" fill-rule="evenodd" fill-opacity="1" /><path clip-path="url(#clip970)" d="M 0 0 M214.607 1066.45 Q210.996 1066.45 209.167 1070.01 Q207.362 1073.56 207.362 1080.69 Q207.362 1087.79 209.167 1091.36 Q210.996 1094.9 214.607 1094.9 Q218.241 1094.9 220.047 1091.36 Q221.875 1087.79 221.875 1080.69 Q221.875 1073.56 220.047 1070.01 Q218.241 1066.45 214.607 1066.45 M214.607 1062.75 Q220.417 1062.75 223.473 1067.35 Q226.551 1071.94 226.551 1080.69 Q226.551 1089.41 223.473 1094.02 Q220.417 1098.6 214.607 1098.6 Q208.797 1098.6 205.718 1094.02 Q202.662 1089.41 202.662 1080.69 Q202.662 1071.94 205.718 1067.35 Q208.797 1062.75 214.607 1062.75 Z" fill="#000000" fill-rule="evenodd" fill-opacity="1" /><path clip-path="url(#clip970)" d="M 0 0 M144.329 771.719 L162.686 771.719 L162.686 775.654 L148.612 775.654 L148.612 784.127 Q149.63 783.779 150.649 783.617 Q151.667 783.432 152.686 783.432 Q158.473 783.432 161.852 786.603 Q165.232 789.775 165.232 795.191 Q165.232 800.77 161.76 803.872 Q158.288 806.951 151.968 806.951 Q149.792 806.951 147.524 806.58 Q145.279 806.21 142.871 805.469 L142.871 800.77 Q144.954 801.904 147.177 802.46 Q149.399 803.015 151.876 803.015 Q155.88 803.015 158.218 800.909 Q160.556 798.803 160.556 795.191 Q160.556 791.58 158.218 789.474 Q155.88 787.367 151.876 787.367 Q150.001 787.367 148.126 787.784 Q146.274 788.201 144.329 789.08 L144.329 771.719 Z" fill="#000000" fill-rule="evenodd" fill-opacity="1" /><path clip-path="url(#clip970)" d="M 0 0 M184.445 774.798 Q180.834 774.798 179.005 778.363 Q177.2 781.904 177.2 789.034 Q177.2 796.14 179.005 799.705 Q180.834 803.247 184.445 803.247 Q188.079 803.247 189.885 799.705 Q191.713 796.14 191.713 789.034 Q191.713 781.904 189.885 778.363 Q188.079 774.798 184.445 774.798 M184.445 771.094 Q190.255 771.094 193.311 775.701 Q196.389 780.284 196.389 789.034 Q196.389 797.761 193.311 802.367 Q190.255 806.951 184.445 806.951 Q178.635 806.951 175.556 802.367 Q172.501 797.761 172.501 789.034 Q172.501 780.284 175.556 775.701 Q178.635 771.094 184.445 771.094 Z" fill="#000000" fill-rule="evenodd" fill-opacity="1" /><path clip-path="url(#clip970)" d="M 0 0 M214.607 774.798 Q210.996 774.798 209.167 778.363 Q207.362 781.904 207.362 789.034 Q207.362 796.14 209.167 799.705 Q210.996 803.247 214.607 803.247 Q218.241 803.247 220.047 799.705 Q221.875 796.14 221.875 789.034 Q221.875 781.904 220.047 778.363 Q218.241 774.798 214.607 774.798 M214.607 771.094 Q220.417 771.094 223.473 775.701 Q226.551 780.284 226.551 789.034 Q226.551 797.761 223.473 802.367 Q220.417 806.951 214.607 806.951 Q208.797 806.951 205.718 802.367 Q202.662 797.761 202.662 789.034 Q202.662 780.284 205.718 775.701 Q208.797 771.094 214.607 771.094 Z" fill="#000000" fill-rule="evenodd" fill-opacity="1" /><path clip-path="url(#clip970)" d="M 0 0 M143.103 480.068 L165.325 480.068 L165.325 482.058 L152.778 514.628 L147.894 514.628 L159.7 484.003 L143.103 484.003 L143.103 480.068 Z" fill="#000000" fill-rule="evenodd" fill-opacity="1" /><path clip-path="url(#clip970)" d="M 0 0 M174.491 480.068 L192.848 480.068 L192.848 484.003 L178.774 484.003 L178.774 492.475 Q179.792 492.128 180.811 491.966 Q181.829 491.781 182.848 491.781 Q188.635 491.781 192.014 494.952 Q195.394 498.123 195.394 503.54 Q195.394 509.118 191.922 512.22 Q188.45 515.299 182.13 515.299 Q179.954 515.299 177.686 514.929 Q175.44 514.558 173.033 513.817 L173.033 509.118 Q175.116 510.253 177.339 510.808 Q179.561 511.364 182.038 511.364 Q186.042 511.364 188.38 509.257 Q190.718 507.151 190.718 503.54 Q190.718 499.929 188.38 497.822 Q186.042 495.716 182.038 495.716 Q180.163 495.716 178.288 496.132 Q176.436 496.549 174.491 497.429 L174.491 480.068 Z" fill="#000000" fill-rule="evenodd" fill-opacity="1" /><path clip-path="url(#clip970)" d="M 0 0 M214.607 483.146 Q210.996 483.146 209.167 486.711 Q207.362 490.253 207.362 497.382 Q207.362 504.489 209.167 508.054 Q210.996 511.595 214.607 511.595 Q218.241 511.595 220.047 508.054 Q221.875 504.489 221.875 497.382 Q221.875 490.253 220.047 486.711 Q218.241 483.146 214.607 483.146 M214.607 479.443 Q220.417 479.443 223.473 484.049 Q226.551 488.632 226.551 497.382 Q226.551 506.109 223.473 510.716 Q220.417 515.299 214.607 515.299 Q208.797 515.299 205.718 510.716 Q202.662 506.109 202.662 497.382 Q202.662 488.632 205.718 484.049 Q208.797 479.443 214.607 479.443 Z" fill="#000000" fill-rule="evenodd" fill-opacity="1" /><path clip-path="url(#clip970)" d="M 0 0 M114.931 219.041 L122.57 219.041 L122.57 192.675 L114.26 194.342 L114.26 190.083 L122.524 188.416 L127.2 188.416 L127.2 219.041 L134.839 219.041 L134.839 222.976 L114.931 222.976 L114.931 219.041 Z" fill="#000000" fill-rule="evenodd" fill-opacity="1" /><path clip-path="url(#clip970)" d="M 0 0 M154.283 191.495 Q150.672 191.495 148.843 195.059 Q147.038 198.601 147.038 205.731 Q147.038 212.837 148.843 216.402 Q150.672 219.944 154.283 219.944 Q157.917 219.944 159.723 216.402 Q161.552 212.837 161.552 205.731 Q161.552 198.601 159.723 195.059 Q157.917 191.495 154.283 191.495 M154.283 187.791 Q160.093 187.791 163.149 192.397 Q166.227 196.981 166.227 205.731 Q166.227 214.457 163.149 219.064 Q160.093 223.647 154.283 223.647 Q148.473 223.647 145.394 219.064 Q142.339 214.457 142.339 205.731 Q142.339 196.981 145.394 192.397 Q148.473 187.791 154.283 187.791 Z" fill="#000000" fill-rule="evenodd" fill-opacity="1" /><path clip-path="url(#clip970)" d="M 0 0 M184.445 191.495 Q180.834 191.495 179.005 195.059 Q177.2 198.601 177.2 205.731 Q177.2 212.837 179.005 216.402 Q180.834 219.944 184.445 219.944 Q188.079 219.944 189.885 216.402 Q191.713 212.837 191.713 205.731 Q191.713 198.601 189.885 195.059 Q188.079 191.495 184.445 191.495 M184.445 187.791 Q190.255 187.791 193.311 192.397 Q196.389 196.981 196.389 205.731 Q196.389 214.457 193.311 219.064 Q190.255 223.647 184.445 223.647 Q178.635 223.647 175.556 219.064 Q172.501 214.457 172.501 205.731 Q172.501 196.981 175.556 192.397 Q178.635 187.791 184.445 187.791 Z" fill="#000000" fill-rule="evenodd" fill-opacity="1" /><path clip-path="url(#clip970)" d="M 0 0 M214.607 191.495 Q210.996 191.495 209.167 195.059 Q207.362 198.601 207.362 205.731 Q207.362 212.837 209.167 216.402 Q210.996 219.944 214.607 219.944 Q218.241 219.944 220.047 216.402 Q221.875 212.837 221.875 205.731 Q221.875 198.601 220.047 195.059 Q218.241 191.495 214.607 191.495 M214.607 187.791 Q220.417 187.791 223.473 192.397 Q226.551 196.981 226.551 205.731 Q226.551 214.457 223.473 219.064 Q220.417 223.647 214.607 223.647 Q208.797 223.647 205.718 219.064 Q202.662 214.457 202.662 205.731 Q202.662 196.981 205.718 192.397 Q208.797 187.791 214.607 187.791 Z" fill="#000000" fill-rule="evenodd" fill-opacity="1" /><path clip-path="url(#clip970)" d="M 0 0 M22.818 872.331 L46.4666 881.052 L46.4666 863.578 L22.818 872.331 M16.4842 875.959 L16.4842 868.67 L64.0042 850.56 L64.0042 857.244 L51.8138 861.573 L51.8138 882.993 L64.0042 887.322 L64.0042 894.101 L16.4842 875.959 Z" fill="#000000" fill-rule="evenodd" fill-opacity="1" /><path clip-path="url(#clip970)" d="M 0 0 M35.1993 816.121 Q31.2526 813.925 29.3747 810.87 Q27.4968 807.814 27.4968 803.676 Q27.4968 798.106 31.4117 795.083 Q35.2948 792.059 42.4881 792.059 L64.0042 792.059 L64.0042 797.947 L42.679 797.947 Q37.5546 797.947 35.072 799.762 Q32.5894 801.576 32.5894 805.3 Q32.5894 809.851 35.6131 812.493 Q38.6368 815.135 43.8567 815.135 L64.0042 815.135 L64.0042 821.023 L42.679 821.023 Q37.5228 821.023 35.072 822.837 Q32.5894 824.651 32.5894 828.439 Q32.5894 832.927 35.6449 835.569 Q38.6686 838.21 43.8567 838.21 L64.0042 838.21 L64.0042 844.099 L28.3562 844.099 L28.3562 838.21 L33.8944 838.21 Q30.616 836.205 29.0564 833.404 Q27.4968 830.603 27.4968 826.752 Q27.4968 822.869 29.4702 820.164 Q31.4436 817.426 35.1993 816.121 Z" fill="#000000" fill-rule="evenodd" fill-opacity="1" /><path clip-path="url(#clip970)" d="M 0 0 M58.657 774.712 L77.5631 774.712 L77.5631 780.601 L28.3562 780.601 L28.3562 774.712 L33.7671 774.712 Q30.5842 772.866 29.0564 770.066 Q27.4968 767.233 27.4968 763.318 Q27.4968 756.825 32.6531 752.783 Q37.8093 748.709 46.212 748.709 Q54.6147 748.709 59.771 752.783 Q64.9272 756.825 64.9272 763.318 Q64.9272 767.233 63.3994 770.066 Q61.8398 772.866 58.657 774.712 M46.212 754.788 Q39.7508 754.788 36.0905 757.461 Q32.3984 760.103 32.3984 764.75 Q32.3984 769.397 36.0905 772.071 Q39.7508 774.712 46.212 774.712 Q52.6732 774.712 56.3653 772.071 Q60.0256 769.397 60.0256 764.75 Q60.0256 760.103 56.3653 757.461 Q52.6732 754.788 46.212 754.788 Z" fill="#000000" fill-rule="evenodd" fill-opacity="1" /><path clip-path="url(#clip970)" d="M 0 0 M14.479 739.001 L14.479 733.144 L64.0042 733.144 L64.0042 739.001 L14.479 739.001 Z" fill="#000000" fill-rule="evenodd" fill-opacity="1" /><path clip-path="url(#clip970)" d="M 0 0 M28.3562 720.89 L28.3562 715.034 L64.0042 715.034 L64.0042 720.89 L28.3562 720.89 M14.479 720.89 L14.479 715.034 L21.895 715.034 L21.895 720.89 L14.479 720.89 Z" fill="#000000" fill-rule="evenodd" fill-opacity="1" /><path clip-path="url(#clip970)" d="M 0 0 M18.2347 696.987 L28.3562 696.987 L28.3562 684.924 L32.9077 684.924 L32.9077 696.987 L52.2594 696.987 Q56.6199 696.987 57.8613 695.81 Q59.1026 694.6 59.1026 690.94 L59.1026 684.924 L64.0042 684.924 L64.0042 690.94 Q64.0042 697.719 61.4897 700.297 Q58.9434 702.875 52.2594 702.875 L32.9077 702.875 L32.9077 707.172 L28.3562 707.172 L28.3562 702.875 L18.2347 702.875 L18.2347 696.987 Z" fill="#000000" fill-rule="evenodd" fill-opacity="1" /><path clip-path="url(#clip970)" d="M 0 0 M49.9359 677.826 L28.3562 677.826 L28.3562 671.97 L49.7131 671.97 Q54.7739 671.97 57.3202 669.997 Q59.8346 668.023 59.8346 664.077 Q59.8346 659.334 56.8109 656.597 Q53.7872 653.828 48.5673 653.828 L28.3562 653.828 L28.3562 647.971 L64.0042 647.971 L64.0042 653.828 L58.5296 653.828 Q61.7762 655.96 63.3676 658.793 Q64.9272 661.594 64.9272 665.318 Q64.9272 671.461 61.1078 674.644 Q57.2883 677.826 49.9359 677.826 M27.4968 663.09 L27.4968 663.09 Z" fill="#000000" fill-rule="evenodd" fill-opacity="1" /><path clip-path="url(#clip970)" d="M 0 0 M33.7671 612.451 L14.479 612.451 L14.479 606.594 L64.0042 606.594 L64.0042 612.451 L58.657 612.451 Q61.8398 614.297 63.3994 617.129 Q64.9272 619.93 64.9272 623.877 Q64.9272 630.338 59.771 634.412 Q54.6147 638.455 46.212 638.455 Q37.8093 638.455 32.6531 634.412 Q27.4968 630.338 27.4968 623.877 Q27.4968 619.93 29.0564 617.129 Q30.5842 614.297 33.7671 612.451 M46.212 632.407 Q52.6732 632.407 56.3653 629.765 Q60.0256 627.092 60.0256 622.445 Q60.0256 617.798 56.3653 615.124 Q52.6732 612.451 46.212 612.451 Q39.7508 612.451 36.0905 615.124 Q32.3984 617.798 32.3984 622.445 Q32.3984 627.092 36.0905 629.765 Q39.7508 632.407 46.212 632.407 Z" fill="#000000" fill-rule="evenodd" fill-opacity="1" /><path clip-path="url(#clip970)" d="M 0 0 M44.7161 564.039 L47.5806 564.039 L47.5806 590.966 Q53.6281 590.584 56.8109 587.338 Q59.9619 584.06 59.9619 578.235 Q59.9619 574.861 59.1344 571.71 Q58.3069 568.527 56.6518 565.408 L62.1899 565.408 Q63.5267 568.559 64.227 571.869 Q64.9272 575.179 64.9272 578.585 Q64.9272 587.115 59.9619 592.112 Q54.9967 597.077 46.5303 597.077 Q37.7774 597.077 32.6531 592.367 Q27.4968 587.624 27.4968 579.604 Q27.4968 572.41 32.1438 568.241 Q36.7589 564.039 44.7161 564.039 M42.9973 569.896 Q38.1912 569.96 35.3266 572.601 Q32.4621 575.211 32.4621 579.54 Q32.4621 584.442 35.2312 587.402 Q38.0002 590.33 43.0292 590.775 L42.9973 569.896 Z" fill="#000000" fill-rule="evenodd" fill-opacity="1" /><polyline clip-path="url(#clip972)" style="stroke:#009af9; stroke-width:4; stroke-opacity:1; fill:none" points="
  321.708,1372.3 323.496,1372.06 325.283,1371.75 327.071,1371.21 328.859,1369.72 330.647,85.838 332.434,1369.11 334.222,1370.6 336.01,1371.1 337.798,1371.36 
  339.585,1371.52 341.373,1371.63 343.161,1371.71 344.949,1371.78 346.736,1371.82 348.524,1371.86 350.312,1371.9 352.1,1371.93 353.888,1371.95 355.675,1371.97 
  357.463,1371.99 359.251,1372.01 361.039,1372.02 362.826,1372.04 364.614,1372.05 366.402,1372.06 368.19,1372.07 369.977,1372.08 371.765,1372.09 373.553,1372.1 
  375.341,1372.1 377.128,1372.11 378.916,1372.12 380.704,1372.12 382.492,1372.13 384.279,1372.13 386.067,1372.14 387.855,1372.14 389.643,1372.15 391.43,1372.15 
  393.218,1372.15 395.006,1372.16 396.794,1372.16 398.581,1372.17 400.369,1372.17 402.157,1372.17 403.945,1372.17 405.732,1372.18 407.52,1372.18 409.308,1372.18 
  411.096,1372.18 412.883,1372.19 414.671,1372.19 416.459,1372.19 418.247,1372.19 420.034,1372.2 421.822,1372.2 423.61,1372.2 425.398,1372.2 427.185,1372.2 
  428.973,1372.2 430.761,1372.21 432.549,1372.21 434.336,1372.21 436.124,1372.21 437.912,1372.21 439.7,1372.21 441.487,1372.21 443.275,1372.22 445.063,1372.22 
  446.851,1372.22 448.638,1372.22 450.426,1372.22 452.214,1372.22 454.002,1372.22 455.789,1372.22 457.577,1372.23 459.365,1372.23 461.153,1372.23 462.94,1372.23 
  464.728,1372.23 466.516,1372.23 468.304,1372.23 470.091,1372.23 471.879,1372.23 473.667,1372.23 475.455,1372.23 477.242,1372.24 479.03,1372.24 480.818,1372.24 
  482.606,1372.24 484.393,1372.24 486.181,1372.24 487.969,1372.24 489.757,1372.24 491.544,1372.24 493.332,1372.24 495.12,1372.24 496.908,1372.24 498.695,1372.24 
  500.483,1372.24 502.271,1372.24 504.059,1372.25 505.846,1372.25 507.634,1372.25 509.422,1372.25 511.21,1372.25 512.997,1372.25 514.785,1372.25 516.573,1372.25 
  518.361,1372.25 520.149,1372.25 521.936,1372.25 523.724,1372.25 525.512,1372.25 527.3,1372.25 529.087,1372.25 530.875,1372.25 532.663,1372.25 534.451,1372.25 
  536.238,1372.25 538.026,1372.25 539.814,1372.25 541.602,1372.25 543.389,1372.26 545.177,1372.26 546.965,1372.26 548.753,1372.26 550.54,1372.26 552.328,1372.26 
  554.116,1372.26 555.904,1372.26 557.691,1372.26 559.479,1372.26 561.267,1372.26 563.055,1372.26 564.842,1372.26 566.63,1372.26 568.418,1372.26 570.206,1372.26 
  571.993,1372.26 573.781,1372.26 575.569,1372.26 577.357,1372.26 579.144,1372.26 580.932,1372.26 582.72,1372.26 584.508,1372.26 586.295,1372.26 588.083,1372.26 
  589.871,1372.26 591.659,1372.26 593.446,1372.26 595.234,1372.26 597.022,1372.26 598.81,1372.26 600.597,1372.26 602.385,1372.27 604.173,1372.27 605.961,1372.27 
  607.748,1372.27 609.536,1372.27 611.324,1372.27 613.112,1372.27 614.899,1372.27 616.687,1372.27 618.475,1372.27 620.263,1372.27 622.05,1372.27 623.838,1372.27 
  625.626,1372.27 627.414,1372.27 629.201,1372.27 630.989,1372.27 632.777,1372.27 634.565,1372.27 636.352,1372.27 638.14,1372.27 639.928,1372.27 641.716,1372.27 
  643.503,1372.27 645.291,1372.27 647.079,1372.27 648.867,1372.27 650.654,1372.27 652.442,1372.27 654.23,1372.27 656.018,1372.27 657.805,1372.27 659.593,1372.27 
  661.381,1372.27 663.169,1372.27 664.956,1372.27 666.744,1372.27 668.532,1372.27 670.32,1372.27 672.107,1372.27 673.895,1372.27 675.683,1372.27 677.471,1372.27 
  679.258,1372.27 681.046,1372.27 682.834,1372.27 684.622,1372.27 686.41,1372.27 688.197,1372.27 689.985,1372.27 691.773,1372.27 693.561,1372.27 695.348,1372.27 
  697.136,1372.27 698.924,1372.27 700.712,1372.27 702.499,1372.27 704.287,1372.27 706.075,1372.28 707.863,1372.28 709.65,1372.28 711.438,1372.28 713.226,1372.28 
  715.014,1372.28 716.801,1372.28 718.589,1372.28 720.377,1372.28 722.165,1372.28 723.952,1372.28 725.74,1372.28 727.528,1372.28 729.316,1372.28 731.103,1372.28 
  732.891,1372.28 734.679,1372.28 736.467,1372.28 738.254,1372.28 740.042,1372.28 741.83,1372.28 743.618,1372.28 745.405,1372.28 747.193,1372.28 748.981,1372.28 
  750.769,1372.28 752.556,1372.28 754.344,1372.28 756.132,1372.28 757.92,1372.28 759.707,1372.28 761.495,1372.28 763.283,1372.28 765.071,1372.28 766.858,1372.28 
  768.646,1372.28 770.434,1372.28 772.222,1372.28 774.009,1372.28 775.797,1372.28 777.585,1372.28 779.373,1372.28 781.16,1372.28 782.948,1372.28 784.736,1372.28 
  786.524,1372.28 788.311,1372.28 790.099,1372.28 791.887,1372.28 793.675,1372.28 795.462,1372.28 797.25,1372.28 799.038,1372.28 800.826,1372.28 802.613,1372.28 
  804.401,1372.28 806.189,1372.28 807.977,1372.28 809.764,1372.28 811.552,1372.28 813.34,1372.28 815.128,1372.28 816.915,1372.28 818.703,1372.28 820.491,1372.28 
  822.279,1372.28 824.066,1372.28 825.854,1372.28 827.642,1372.28 829.43,1372.28 831.217,1372.28 833.005,1372.28 834.793,1372.28 836.581,1372.28 838.368,1372.28 
  840.156,1372.28 841.944,1372.28 843.732,1372.28 845.519,1372.28 847.307,1372.28 849.095,1372.28 850.883,1372.28 852.671,1372.28 854.458,1372.28 856.246,1372.28 
  858.034,1372.28 859.822,1372.28 861.609,1372.28 863.397,1372.28 865.185,1372.28 866.973,1372.28 868.76,1372.28 870.548,1372.28 872.336,1372.28 874.124,1372.28 
  875.911,1372.28 877.699,1372.28 879.487,1372.28 881.275,1372.28 883.062,1372.28 884.85,1372.28 886.638,1372.28 888.426,1372.28 890.213,1372.28 892.001,1372.28 
  893.789,1372.28 895.577,1372.28 897.364,1372.28 899.152,1372.28 900.94,1372.28 902.728,1372.28 904.515,1372.28 906.303,1372.28 908.091,1372.28 909.879,1372.28 
  911.666,1372.28 913.454,1372.28 915.242,1372.28 917.03,1372.28 918.817,1372.28 920.605,1372.28 922.393,1372.28 924.181,1372.28 925.968,1372.28 927.756,1372.28 
  929.544,1372.28 931.332,1372.28 933.119,1372.28 934.907,1372.28 936.695,1372.29 938.483,1372.29 940.27,1372.29 942.058,1372.29 943.846,1372.29 945.634,1372.29 
  947.421,1372.29 949.209,1372.29 950.997,1372.29 952.785,1372.29 954.572,1372.29 956.36,1372.29 958.148,1372.29 959.936,1372.29 961.723,1372.29 963.511,1372.29 
  965.299,1372.29 967.087,1372.29 968.874,1372.29 970.662,1372.29 972.45,1372.29 974.238,1372.29 976.025,1372.29 977.813,1372.29 979.601,1372.29 981.389,1372.29 
  983.176,1372.29 984.964,1372.29 986.752,1372.29 988.54,1372.29 990.327,1372.29 992.115,1372.29 993.903,1372.29 995.691,1372.29 997.478,1372.29 999.266,1372.29 
  1001.05,1372.29 1002.84,1372.29 1004.63,1372.29 1006.42,1372.29 1008.2,1372.29 1009.99,1372.29 1011.78,1372.29 1013.57,1372.29 1015.36,1372.29 1017.14,1372.29 
  1018.93,1372.29 1020.72,1372.29 1022.51,1372.29 1024.29,1372.29 1026.08,1372.29 1027.87,1372.29 1029.66,1372.29 1031.45,1372.29 1033.23,1372.29 1035.02,1372.29 
  1036.81,1372.29 1038.6,1372.29 1040.38,1372.29 1042.17,1372.29 1043.96,1372.29 1045.75,1372.29 1047.54,1372.29 1049.32,1372.29 1051.11,1372.29 1052.9,1372.29 
  1054.69,1372.29 1056.47,1372.29 1058.26,1372.29 1060.05,1372.29 1061.84,1372.29 1063.63,1372.29 1065.41,1372.29 1067.2,1372.29 1068.99,1372.29 1070.78,1372.29 
  1072.56,1372.29 1074.35,1372.29 1076.14,1372.29 1077.93,1372.29 1079.72,1372.29 1081.5,1372.29 1083.29,1372.29 1085.08,1372.29 1086.87,1372.29 1088.65,1372.29 
  1090.44,1372.29 1092.23,1372.29 1094.02,1372.29 1095.8,1372.29 1097.59,1372.29 1099.38,1372.29 1101.17,1372.29 1102.96,1372.29 1104.74,1372.29 1106.53,1372.29 
  1108.32,1372.29 1110.11,1372.29 1111.89,1372.29 1113.68,1372.29 1115.47,1372.29 1117.26,1372.29 1119.05,1372.29 1120.83,1372.29 1122.62,1372.29 1124.41,1372.29 
  1126.2,1372.29 1127.98,1372.29 1129.77,1372.29 1131.56,1372.29 1133.35,1372.29 1135.14,1372.29 1136.92,1372.29 1138.71,1372.29 1140.5,1372.29 1142.29,1372.29 
  1144.07,1372.29 1145.86,1372.29 1147.65,1372.29 1149.44,1372.29 1151.23,1372.29 1153.01,1372.29 1154.8,1372.29 1156.59,1372.29 1158.38,1372.29 1160.16,1372.29 
  1161.95,1372.29 1163.74,1372.29 1165.53,1372.29 1167.31,1372.29 1169.1,1372.29 1170.89,1372.29 1172.68,1372.29 1174.47,1372.29 1176.25,1372.29 1178.04,1372.29 
  1179.83,1372.29 1181.62,1372.29 1183.4,1372.29 1185.19,1372.29 1186.98,1372.29 1188.77,1372.29 1190.56,1372.29 1192.34,1372.29 1194.13,1372.29 1195.92,1372.29 
  1197.71,1372.29 1199.49,1372.29 1201.28,1372.29 1203.07,1372.29 1204.86,1372.29 1206.65,1372.29 1208.43,1372.29 1210.22,1372.29 1212.01,1372.29 1213.8,1372.29 
  1215.58,1372.29 1217.37,1372.29 1219.16,1372.29 1220.95,1372.29 1222.74,1372.29 1224.52,1372.29 1226.31,1372.29 1228.1,1372.29 1229.89,1372.29 1231.67,1372.29 
  1233.46,1372.29 1235.25,1372.29 1237.04,1372.29 1238.83,1372.29 1240.61,1372.29 1242.4,1372.29 1244.19,1372.29 1245.98,1372.29 1247.76,1372.29 1249.55,1372.29 
  1251.34,1372.29 1253.13,1372.29 1254.91,1372.29 1256.7,1372.29 1258.49,1372.29 1260.28,1372.29 1262.07,1372.29 1263.85,1372.29 1265.64,1372.29 1267.43,1372.29 
  1269.22,1372.29 1271,1372.29 1272.79,1372.29 1274.58,1372.29 1276.37,1372.29 1278.16,1372.29 1279.94,1372.29 1281.73,1372.29 1283.52,1372.29 1285.31,1372.29 
  1287.09,1372.29 1288.88,1372.29 1290.67,1372.29 1292.46,1372.29 1294.25,1372.29 1296.03,1372.29 1297.82,1372.29 1299.61,1372.29 1301.4,1372.29 1303.18,1372.29 
  1304.97,1372.29 1306.76,1372.29 1308.55,1372.29 1310.34,1372.29 1312.12,1372.29 1313.91,1372.29 1315.7,1372.29 1317.49,1372.29 1319.27,1372.29 1321.06,1372.29 
  1322.85,1372.29 1324.64,1372.29 1326.42,1372.29 1328.21,1372.29 1330,1372.29 1331.79,1372.29 1333.58,1372.29 1335.36,1372.29 1337.15,1372.29 1338.94,1372.29 
  1340.73,1372.29 1342.51,1372.29 1344.3,1372.29 1346.09,1372.29 1347.88,1372.29 1349.67,1372.29 1351.45,1372.29 1353.24,1372.29 1355.03,1372.29 1356.82,1372.29 
  1358.6,1372.29 1360.39,1372.29 1362.18,1372.29 1363.97,1372.29 1365.76,1372.29 1367.54,1372.29 1369.33,1372.29 1371.12,1372.29 1372.91,1372.29 1374.69,1372.29 
  1376.48,1372.29 1378.27,1372.29 1380.06,1372.29 1381.85,1372.29 1383.63,1372.29 1385.42,1372.29 1387.21,1372.29 1389,1372.29 1390.78,1372.29 1392.57,1372.29 
  1394.36,1372.29 1396.15,1372.29 1397.94,1372.29 1399.72,1372.29 1401.51,1372.29 1403.3,1372.29 1405.09,1372.29 1406.87,1372.29 1408.66,1372.29 1410.45,1372.29 
  1412.24,1372.29 1414.02,1372.29 1415.81,1372.29 1417.6,1372.29 1419.39,1372.29 1421.18,1372.29 1422.96,1372.29 1424.75,1372.29 1426.54,1372.29 1428.33,1372.29 
  1430.11,1372.29 1431.9,1372.29 1433.69,1372.29 1435.48,1372.29 1437.27,1372.29 1439.05,1372.29 1440.84,1372.29 1442.63,1372.29 1444.42,1372.29 1446.2,1372.29 
  1447.99,1372.29 1449.78,1372.29 1451.57,1372.29 1453.36,1372.29 1455.14,1372.29 1456.93,1372.29 1458.72,1372.29 1460.51,1372.29 1462.29,1372.29 1464.08,1372.29 
  1465.87,1372.29 1467.66,1372.29 1469.45,1372.29 1471.23,1372.29 1473.02,1372.29 1474.81,1372.29 1476.6,1372.29 1478.38,1372.29 1480.17,1372.29 1481.96,1372.29 
  1483.75,1372.29 1485.53,1372.29 1487.32,1372.29 1489.11,1372.29 1490.9,1372.29 1492.69,1372.29 1494.47,1372.29 1496.26,1372.29 1498.05,1372.29 1499.84,1372.29 
  1501.62,1372.29 1503.41,1372.29 1505.2,1372.29 1506.99,1372.29 1508.78,1372.29 1510.56,1372.29 1512.35,1372.29 1514.14,1372.29 1515.93,1372.29 1517.71,1372.29 
  1519.5,1372.29 1521.29,1372.29 1523.08,1372.29 1524.87,1372.29 1526.65,1372.29 1528.44,1372.29 1530.23,1372.29 1532.02,1372.29 1533.8,1372.29 1535.59,1372.29 
  1537.38,1372.29 1539.17,1372.29 1540.96,1372.29 1542.74,1372.29 1544.53,1372.29 1546.32,1372.29 1548.11,1372.29 1549.89,1372.29 1551.68,1372.29 1553.47,1372.29 
  1555.26,1372.29 1557.05,1372.29 1558.83,1372.29 1560.62,1372.29 1562.41,1372.29 1564.2,1372.29 1565.98,1372.29 1567.77,1372.29 1569.56,1372.29 1571.35,1372.29 
  1573.13,1372.29 1574.92,1372.29 1576.71,1372.29 1578.5,1372.29 1580.29,1372.29 1582.07,1372.29 1583.86,1372.29 1585.65,1372.29 1587.44,1372.29 1589.22,1372.29 
  1591.01,1372.29 1592.8,1372.29 1594.59,1372.29 1596.38,1372.29 1598.16,1372.29 1599.95,1372.29 1601.74,1372.29 1603.53,1372.29 1605.31,1372.29 1607.1,1372.29 
  1608.89,1372.29 1610.68,1372.29 1612.47,1372.29 1614.25,1372.29 1616.04,1372.29 1617.83,1372.29 1619.62,1372.29 1621.4,1372.29 1623.19,1372.29 1624.98,1372.29 
  1626.77,1372.29 1628.56,1372.29 1630.34,1372.29 1632.13,1372.29 1633.92,1372.29 1635.71,1372.29 1637.49,1372.29 1639.28,1372.29 1641.07,1372.29 1642.86,1372.29 
  1644.64,1372.29 1646.43,1372.29 1648.22,1372.29 1650.01,1372.29 1651.8,1372.29 1653.58,1372.29 1655.37,1372.29 1657.16,1372.29 1658.95,1372.29 1660.73,1372.29 
  1662.52,1372.29 1664.31,1372.29 1666.1,1372.29 1667.89,1372.29 1669.67,1372.29 1671.46,1372.29 1673.25,1372.29 1675.04,1372.29 1676.82,1372.29 1678.61,1372.29 
  1680.4,1372.29 1682.19,1372.29 1683.98,1372.29 1685.76,1372.29 1687.55,1372.29 1689.34,1372.29 1691.13,1372.29 1692.91,1372.29 1694.7,1372.29 1696.49,1372.29 
  1698.28,1372.29 1700.07,1372.29 1701.85,1372.29 1703.64,1372.29 1705.43,1372.29 1707.22,1372.29 1709,1372.29 1710.79,1372.29 1712.58,1372.29 1714.37,1372.29 
  1716.16,1372.29 1717.94,1372.29 1719.73,1372.29 1721.52,1372.29 1723.31,1372.29 1725.09,1372.29 1726.88,1372.29 1728.67,1372.29 1730.46,1372.29 1732.24,1372.29 
  1734.03,1372.29 1735.82,1372.29 1737.61,1372.29 1739.4,1372.29 1741.18,1372.29 1742.97,1372.29 1744.76,1372.29 1746.55,1372.29 1748.33,1372.29 1750.12,1372.29 
  1751.91,1372.29 1753.7,1372.29 1755.49,1372.29 1757.27,1372.29 1759.06,1372.29 1760.85,1372.29 1762.64,1372.29 1764.42,1372.29 1766.21,1372.29 1768,1372.29 
  1769.79,1372.29 1771.58,1372.29 1773.36,1372.29 1775.15,1372.29 1776.94,1372.29 1778.73,1372.29 1780.51,1372.29 1782.3,1372.29 1784.09,1372.29 1785.88,1372.29 
  1787.67,1372.29 1789.45,1372.29 1791.24,1372.29 1793.03,1372.29 1794.82,1372.29 1796.6,1372.29 1798.39,1372.29 1800.18,1372.29 1801.97,1372.29 1803.75,1372.29 
  1805.54,1372.29 1807.33,1372.29 1809.12,1372.29 1810.91,1372.29 1812.69,1372.29 1814.48,1372.29 1816.27,1372.29 1818.06,1372.29 1819.84,1372.29 1821.63,1372.29 
  1823.42,1372.29 1825.21,1372.29 1827,1372.29 1828.78,1372.29 1830.57,1372.29 1832.36,1372.29 1834.15,1372.29 1835.93,1372.29 1837.72,1372.29 1839.51,1372.29 
  1841.3,1372.29 1843.09,1372.29 1844.87,1372.29 1846.66,1372.29 1848.45,1372.29 1850.24,1372.29 1852.02,1372.29 1853.81,1372.29 1855.6,1372.29 1857.39,1372.29 
  1859.18,1372.29 1860.96,1372.29 1862.75,1372.29 1864.54,1372.29 1866.33,1372.29 1868.11,1372.29 1869.9,1372.29 1871.69,1372.29 1873.48,1372.29 1875.27,1372.29 
  1877.05,1372.29 1878.84,1372.29 1880.63,1372.29 1882.42,1372.29 1884.2,1372.29 1885.99,1372.29 1887.78,1372.29 1889.57,1372.29 1891.35,1372.29 1893.14,1372.29 
  1894.93,1372.29 1896.72,1372.29 1898.51,1372.29 1900.29,1372.29 1902.08,1372.29 1903.87,1372.29 1905.66,1372.29 1907.44,1372.29 1909.23,1372.29 1911.02,1372.29 
  1912.81,1372.29 1914.6,1372.29 1916.38,1372.29 1918.17,1372.29 1919.96,1372.29 1921.75,1372.29 1923.53,1372.29 1925.32,1372.29 1927.11,1372.29 1928.9,1372.29 
  1930.69,1372.29 1932.47,1372.29 1934.26,1372.29 1936.05,1372.29 1937.84,1372.29 1939.62,1372.29 1941.41,1372.29 1943.2,1372.29 1944.99,1372.29 1946.78,1372.29 
  1948.56,1372.29 1950.35,1372.29 1952.14,1372.29 1953.93,1372.29 1955.71,1372.29 1957.5,1372.29 1959.29,1372.29 1961.08,1372.29 1962.86,1372.29 1964.65,1372.29 
  1966.44,1372.29 1968.23,1372.29 1970.02,1372.29 1971.8,1372.29 1973.59,1372.29 1975.38,1372.29 1977.17,1372.29 1978.95,1372.29 1980.74,1372.29 1982.53,1372.29 
  1984.32,1372.29 1986.11,1372.29 1987.89,1372.29 1989.68,1372.29 1991.47,1372.29 1993.26,1372.29 1995.04,1372.29 1996.83,1372.29 1998.62,1372.29 2000.41,1372.29 
  2002.2,1372.29 2003.98,1372.29 2005.77,1372.29 2007.56,1372.29 2009.35,1372.29 2011.13,1372.29 2012.92,1372.29 2014.71,1372.29 2016.5,1372.29 2018.29,1372.29 
  2020.07,1372.29 2021.86,1372.29 2023.65,1372.29 2025.44,1372.29 2027.22,1372.29 2029.01,1372.29 2030.8,1372.29 2032.59,1372.29 2034.38,1372.29 2036.16,1372.29 
  2037.95,1372.29 2039.74,1372.29 2041.53,1372.29 2043.31,1372.29 2045.1,1372.29 2046.89,1372.29 2048.68,1372.29 2050.46,1372.29 2052.25,1372.29 2054.04,1372.29 
  2055.83,1372.29 2057.62,1372.29 2059.4,1372.29 2061.19,1372.29 2062.98,1372.29 2064.77,1372.29 2066.55,1372.29 2068.34,1372.29 2070.13,1372.29 2071.92,1372.29 
  2073.71,1372.29 2075.49,1372.29 2077.28,1372.29 2079.07,1372.29 2080.86,1372.29 2082.64,1372.29 2084.43,1372.29 2086.22,1372.29 2088.01,1372.29 2089.8,1372.29 
  2091.58,1372.29 2093.37,1372.29 2095.16,1372.29 2096.95,1372.29 2098.73,1372.29 2100.52,1372.29 2102.31,1372.29 2104.1,1372.29 2105.89,1372.29 2107.67,1372.29 
  2109.46,1372.29 2111.25,1372.29 2113.04,1372.29 2114.82,1372.29 2116.61,1372.29 2118.4,1372.29 2120.19,1372.29 2121.97,1372.29 2123.76,1372.29 2125.55,1372.29 
  2127.34,1372.29 2129.13,1372.29 2130.91,1372.29 2132.7,1372.29 2134.49,1372.29 2136.28,1372.29 2138.06,1372.29 2139.85,1372.29 2141.64,1372.29 2143.43,1372.29 
  2145.22,1372.29 2147,1372.29 2148.79,1372.29 2150.58,1372.29 2152.37,1372.29 2154.15,1372.29 2155.94,1372.29 2157.73,1372.29 2159.52,1372.29 2161.31,1372.29 
  2163.09,1372.29 2164.88,1372.29 2166.67,1372.29 2168.46,1372.29 2170.24,1372.29 2172.03,1372.29 2173.82,1372.29 2175.61,1372.29 2177.4,1372.29 2179.18,1372.29 
  2180.97,1372.29 2182.76,1372.29 2184.55,1372.29 2186.33,1372.29 2188.12,1372.29 2189.91,1372.29 2191.7,1372.29 2193.49,1372.29 2195.27,1372.29 2197.06,1372.29 
  2198.85,1372.29 2200.64,1372.29 2202.42,1372.29 2204.21,1372.29 2206,1372.29 2207.79,1372.29 2209.57,1372.29 2211.36,1372.29 2213.15,1372.29 2214.94,1372.29 
  2216.73,1372.29 2218.51,1372.29 2220.3,1372.29 2222.09,1372.29 2223.88,1372.29 2225.66,1372.29 2227.45,1372.29 2229.24,1372.29 2231.03,1372.29 2232.82,1372.29 
  2234.6,1372.29 2236.39,1372.29 2238.18,1372.29 2239.97,1372.29 2241.75,1372.29 2243.54,1372.29 2245.33,1372.29 2247.12,1372.29 2248.91,1372.29 2250.69,1372.29 
  2252.48,1372.29 2254.27,1372.29 2256.06,1372.29 2257.84,1372.29 2259.63,1372.29 2261.42,1372.29 2263.21,1372.29 2265,1372.29 2266.78,1372.29 2268.57,1372.29 
  2270.36,1372.29 2272.15,1372.29 2273.93,1372.29 2275.72,1372.29 2277.51,1372.29 2279.3,1372.29 2281.08,1372.29 2282.87,1372.29 2284.66,1372.29 2286.45,1372.29 
  2288.24,1372.29 2290.02,1372.29 2291.81,1372.29 2293.6,1372.29 
  "/>
</svg>
