<?xml version="1.0" encoding="utf-8"?>
<svg xmlns="http://www.w3.org/2000/svg" xmlns:xlink="http://www.w3.org/1999/xlink" width="600" height="400" viewBox="0 0 2400 1600">
<defs>
  <clipPath id="clip850">
    <rect x="0" y="0" width="2400" height="1600"/>
  </clipPath>
</defs>
<path clip-path="url(#clip850)" d="
M0 1600 L2400 1600 L2400 0 L0 0  Z
  " fill="#ffffff" fill-rule="evenodd" fill-opacity="1"/>
<defs>
  <clipPath id="clip851">
    <rect x="480" y="0" width="1681" height="1600"/>
  </clipPath>
</defs>
<path clip-path="url(#clip850)" d="
M257.204 1423.18 L2352.76 1423.18 L2352.76 47.2441 L257.204 47.2441  Z
  " fill="#ffffff" fill-rule="evenodd" fill-opacity="1"/>
<defs>
  <clipPath id="clip852">
    <rect x="257" y="47" width="2097" height="1377"/>
  </clipPath>
</defs>
<polyline clip-path="url(#clip852)" style="stroke:#000000; stroke-width:2; stroke-opacity:0.1; fill:none" points="
  316.512,1423.18 316.512,47.2441 
  "/>
<polyline clip-path="url(#clip852)" style="stroke:#000000; stroke-width:2; stroke-opacity:0.1; fill:none" points="
  711.899,1423.18 711.899,47.2441 
  "/>
<polyline clip-path="url(#clip852)" style="stroke:#000000; stroke-width:2; stroke-opacity:0.1; fill:none" points="
  1107.29,1423.18 1107.29,47.2441 
  "/>
<polyline clip-path="url(#clip852)" style="stroke:#000000; stroke-width:2; stroke-opacity:0.1; fill:none" points="
  1502.67,1423.18 1502.67,47.2441 
  "/>
<polyline clip-path="url(#clip852)" style="stroke:#000000; stroke-width:2; stroke-opacity:0.1; fill:none" points="
  1898.06,1423.18 1898.06,47.2441 
  "/>
<polyline clip-path="url(#clip852)" style="stroke:#000000; stroke-width:2; stroke-opacity:0.1; fill:none" points="
  2293.45,1423.18 2293.45,47.2441 
  "/>
<polyline clip-path="url(#clip850)" style="stroke:#000000; stroke-width:4; stroke-opacity:1; fill:none" points="
  257.204,1423.18 2352.76,1423.18 
  "/>
<polyline clip-path="url(#clip850)" style="stroke:#000000; stroke-width:4; stroke-opacity:1; fill:none" points="
  316.512,1423.18 316.512,1406.67 
  "/>
<polyline clip-path="url(#clip850)" style="stroke:#000000; stroke-width:4; stroke-opacity:1; fill:none" points="
  711.899,1423.18 711.899,1406.67 
  "/>
<polyline clip-path="url(#clip850)" style="stroke:#000000; stroke-width:4; stroke-opacity:1; fill:none" points="
  1107.29,1423.18 1107.29,1406.67 
  "/>
<polyline clip-path="url(#clip850)" style="stroke:#000000; stroke-width:4; stroke-opacity:1; fill:none" points="
  1502.67,1423.18 1502.67,1406.67 
  "/>
<polyline clip-path="url(#clip850)" style="stroke:#000000; stroke-width:4; stroke-opacity:1; fill:none" points="
  1898.06,1423.18 1898.06,1406.67 
  "/>
<polyline clip-path="url(#clip850)" style="stroke:#000000; stroke-width:4; stroke-opacity:1; fill:none" points="
  2293.45,1423.18 2293.45,1406.67 
  "/>
<path clip-path="url(#clip850)" d="M 0 0 M278.816 1452.37 Q275.204 1452.37 273.376 1455.94 Q271.57 1459.48 271.57 1466.61 Q271.57 1473.71 273.376 1477.28 Q275.204 1480.82 278.816 1480.82 Q282.45 1480.82 284.255 1477.28 Q286.084 1473.71 286.084 1466.61 Q286.084 1459.48 284.255 1455.94 Q282.45 1452.37 278.816 1452.37 M278.816 1448.67 Q284.626 1448.67 287.681 1453.27 Q290.76 1457.86 290.76 1466.61 Q290.76 1475.33 287.681 1479.94 Q284.626 1484.52 278.816 1484.52 Q273.005 1484.52 269.927 1479.94 Q266.871 1475.33 266.871 1466.61 Q266.871 1457.86 269.927 1453.27 Q273.005 1448.67 278.816 1448.67 Z" fill="#000000" fill-rule="evenodd" fill-opacity="1" /><path clip-path="url(#clip850)" d="M 0 0 M298.977 1477.97 L303.862 1477.97 L303.862 1483.85 L298.977 1483.85 L298.977 1477.97 Z" fill="#000000" fill-rule="evenodd" fill-opacity="1" /><path clip-path="url(#clip850)" d="M 0 0 M324.047 1452.37 Q320.436 1452.37 318.607 1455.94 Q316.801 1459.48 316.801 1466.61 Q316.801 1473.71 318.607 1477.28 Q320.436 1480.82 324.047 1480.82 Q327.681 1480.82 329.487 1477.28 Q331.315 1473.71 331.315 1466.61 Q331.315 1459.48 329.487 1455.94 Q327.681 1452.37 324.047 1452.37 M324.047 1448.67 Q329.857 1448.67 332.912 1453.27 Q335.991 1457.86 335.991 1466.61 Q335.991 1475.33 332.912 1479.94 Q329.857 1484.52 324.047 1484.52 Q318.237 1484.52 315.158 1479.94 Q312.102 1475.33 312.102 1466.61 Q312.102 1457.86 315.158 1453.27 Q318.237 1448.67 324.047 1448.67 Z" fill="#000000" fill-rule="evenodd" fill-opacity="1" /><path clip-path="url(#clip850)" d="M 0 0 M354.209 1452.37 Q350.598 1452.37 348.769 1455.94 Q346.963 1459.48 346.963 1466.61 Q346.963 1473.71 348.769 1477.28 Q350.598 1480.82 354.209 1480.82 Q357.843 1480.82 359.648 1477.28 Q361.477 1473.71 361.477 1466.61 Q361.477 1459.48 359.648 1455.94 Q357.843 1452.37 354.209 1452.37 M354.209 1448.67 Q360.019 1448.67 363.074 1453.27 Q366.153 1457.86 366.153 1466.61 Q366.153 1475.33 363.074 1479.94 Q360.019 1484.52 354.209 1484.52 Q348.399 1484.52 345.32 1479.94 Q342.264 1475.33 342.264 1466.61 Q342.264 1457.86 345.32 1453.27 Q348.399 1448.67 354.209 1448.67 Z" fill="#000000" fill-rule="evenodd" fill-opacity="1" /><path clip-path="url(#clip850)" d="M 0 0 M674.816 1452.37 Q671.205 1452.37 669.376 1455.94 Q667.571 1459.48 667.571 1466.61 Q667.571 1473.71 669.376 1477.28 Q671.205 1480.82 674.816 1480.82 Q678.45 1480.82 680.256 1477.28 Q682.085 1473.71 682.085 1466.61 Q682.085 1459.48 680.256 1455.94 Q678.45 1452.37 674.816 1452.37 M674.816 1448.67 Q680.626 1448.67 683.682 1453.27 Q686.76 1457.86 686.76 1466.61 Q686.76 1475.33 683.682 1479.94 Q680.626 1484.52 674.816 1484.52 Q669.006 1484.52 665.927 1479.94 Q662.872 1475.33 662.872 1466.61 Q662.872 1457.86 665.927 1453.27 Q669.006 1448.67 674.816 1448.67 Z" fill="#000000" fill-rule="evenodd" fill-opacity="1" /><path clip-path="url(#clip850)" d="M 0 0 M694.978 1477.97 L699.862 1477.97 L699.862 1483.85 L694.978 1483.85 L694.978 1477.97 Z" fill="#000000" fill-rule="evenodd" fill-opacity="1" /><path clip-path="url(#clip850)" d="M 0 0 M720.047 1452.37 Q716.436 1452.37 714.608 1455.94 Q712.802 1459.48 712.802 1466.61 Q712.802 1473.71 714.608 1477.28 Q716.436 1480.82 720.047 1480.82 Q723.682 1480.82 725.487 1477.28 Q727.316 1473.71 727.316 1466.61 Q727.316 1459.48 725.487 1455.94 Q723.682 1452.37 720.047 1452.37 M720.047 1448.67 Q725.858 1448.67 728.913 1453.27 Q731.992 1457.86 731.992 1466.61 Q731.992 1475.33 728.913 1479.94 Q725.858 1484.52 720.047 1484.52 Q714.237 1484.52 711.159 1479.94 Q708.103 1475.33 708.103 1466.61 Q708.103 1457.86 711.159 1453.27 Q714.237 1448.67 720.047 1448.67 Z" fill="#000000" fill-rule="evenodd" fill-opacity="1" /><path clip-path="url(#clip850)" d="M 0 0 M741.019 1479.92 L748.658 1479.92 L748.658 1453.55 L740.348 1455.22 L740.348 1450.96 L748.612 1449.29 L753.288 1449.29 L753.288 1479.92 L760.927 1479.92 L760.927 1483.85 L741.019 1483.85 L741.019 1479.92 Z" fill="#000000" fill-rule="evenodd" fill-opacity="1" /><path clip-path="url(#clip850)" d="M 0 0 M1070.39 1452.37 Q1066.78 1452.37 1064.95 1455.94 Q1063.14 1459.48 1063.14 1466.61 Q1063.14 1473.71 1064.95 1477.28 Q1066.78 1480.82 1070.39 1480.82 Q1074.02 1480.82 1075.83 1477.28 Q1077.66 1473.71 1077.66 1466.61 Q1077.66 1459.48 1075.83 1455.94 Q1074.02 1452.37 1070.39 1452.37 M1070.39 1448.67 Q1076.2 1448.67 1079.25 1453.27 Q1082.33 1457.86 1082.33 1466.61 Q1082.33 1475.33 1079.25 1479.94 Q1076.2 1484.52 1070.39 1484.52 Q1064.58 1484.52 1061.5 1479.94 Q1058.44 1475.33 1058.44 1466.61 Q1058.44 1457.86 1061.5 1453.27 Q1064.58 1448.67 1070.39 1448.67 Z" fill="#000000" fill-rule="evenodd" fill-opacity="1" /><path clip-path="url(#clip850)" d="M 0 0 M1090.55 1477.97 L1095.43 1477.97 L1095.43 1483.85 L1090.55 1483.85 L1090.55 1477.97 Z" fill="#000000" fill-rule="evenodd" fill-opacity="1" /><path clip-path="url(#clip850)" d="M 0 0 M1115.62 1452.37 Q1112.01 1452.37 1110.18 1455.94 Q1108.37 1459.48 1108.37 1466.61 Q1108.37 1473.71 1110.18 1477.28 Q1112.01 1480.82 1115.62 1480.82 Q1119.25 1480.82 1121.06 1477.28 Q1122.89 1473.71 1122.89 1466.61 Q1122.89 1459.48 1121.06 1455.94 Q1119.25 1452.37 1115.62 1452.37 M1115.62 1448.67 Q1121.43 1448.67 1124.49 1453.27 Q1127.56 1457.86 1127.56 1466.61 Q1127.56 1475.33 1124.49 1479.94 Q1121.43 1484.52 1115.62 1484.52 Q1109.81 1484.52 1106.73 1479.94 Q1103.68 1475.33 1103.68 1466.61 Q1103.68 1457.86 1106.73 1453.27 Q1109.81 1448.67 1115.62 1448.67 Z" fill="#000000" fill-rule="evenodd" fill-opacity="1" /><path clip-path="url(#clip850)" d="M 0 0 M1139.81 1479.92 L1156.13 1479.92 L1156.13 1483.85 L1134.18 1483.85 L1134.18 1479.92 Q1136.85 1477.16 1141.43 1472.53 Q1146.04 1467.88 1147.22 1466.54 Q1149.46 1464.01 1150.34 1462.28 Q1151.24 1460.52 1151.24 1458.83 Q1151.24 1456.07 1149.3 1454.34 Q1147.38 1452.6 1144.28 1452.6 Q1142.08 1452.6 1139.62 1453.37 Q1137.19 1454.13 1134.42 1455.68 L1134.42 1450.96 Q1137.24 1449.82 1139.69 1449.25 Q1142.15 1448.67 1144.18 1448.67 Q1149.55 1448.67 1152.75 1451.35 Q1155.94 1454.04 1155.94 1458.53 Q1155.94 1460.66 1155.13 1462.58 Q1154.35 1464.48 1152.24 1467.07 Q1151.66 1467.74 1148.56 1470.96 Q1145.46 1474.15 1139.81 1479.92 Z" fill="#000000" fill-rule="evenodd" fill-opacity="1" /><path clip-path="url(#clip850)" d="M 0 0 M1465.3 1452.37 Q1461.69 1452.37 1459.86 1455.94 Q1458.06 1459.48 1458.06 1466.61 Q1458.06 1473.71 1459.86 1477.28 Q1461.69 1480.82 1465.3 1480.82 Q1468.94 1480.82 1470.74 1477.28 Q1472.57 1473.71 1472.57 1466.61 Q1472.57 1459.48 1470.74 1455.94 Q1468.94 1452.37 1465.3 1452.37 M1465.3 1448.67 Q1471.11 1448.67 1474.17 1453.27 Q1477.25 1457.86 1477.25 1466.61 Q1477.25 1475.33 1474.17 1479.94 Q1471.11 1484.52 1465.3 1484.52 Q1459.49 1484.52 1456.41 1479.94 Q1453.36 1475.33 1453.36 1466.61 Q1453.36 1457.86 1456.41 1453.27 Q1459.49 1448.67 1465.3 1448.67 Z" fill="#000000" fill-rule="evenodd" fill-opacity="1" /><path clip-path="url(#clip850)" d="M 0 0 M1485.46 1477.97 L1490.35 1477.97 L1490.35 1483.85 L1485.46 1483.85 L1485.46 1477.97 Z" fill="#000000" fill-rule="evenodd" fill-opacity="1" /><path clip-path="url(#clip850)" d="M 0 0 M1510.53 1452.37 Q1506.92 1452.37 1505.09 1455.94 Q1503.29 1459.48 1503.29 1466.61 Q1503.29 1473.71 1505.09 1477.28 Q1506.92 1480.82 1510.53 1480.82 Q1514.17 1480.82 1515.97 1477.28 Q1517.8 1473.71 1517.8 1466.61 Q1517.8 1459.48 1515.97 1455.94 Q1514.17 1452.37 1510.53 1452.37 M1510.53 1448.67 Q1516.34 1448.67 1519.4 1453.27 Q1522.48 1457.86 1522.48 1466.61 Q1522.48 1475.33 1519.4 1479.94 Q1516.34 1484.52 1510.53 1484.52 Q1504.72 1484.52 1501.64 1479.94 Q1498.59 1475.33 1498.59 1466.61 Q1498.59 1457.86 1501.64 1453.27 Q1504.72 1448.67 1510.53 1448.67 Z" fill="#000000" fill-rule="evenodd" fill-opacity="1" /><path clip-path="url(#clip850)" d="M 0 0 M1544.86 1465.22 Q1548.22 1465.94 1550.09 1468.2 Q1551.99 1470.47 1551.99 1473.81 Q1551.99 1478.92 1548.47 1481.72 Q1544.95 1484.52 1538.47 1484.52 Q1536.3 1484.52 1533.98 1484.08 Q1531.69 1483.67 1529.24 1482.81 L1529.24 1478.3 Q1531.18 1479.43 1533.5 1480.01 Q1535.81 1480.59 1538.33 1480.59 Q1542.73 1480.59 1545.02 1478.85 Q1547.34 1477.12 1547.34 1473.81 Q1547.34 1470.75 1545.18 1469.04 Q1543.06 1467.3 1539.24 1467.3 L1535.21 1467.3 L1535.21 1463.46 L1539.42 1463.46 Q1542.87 1463.46 1544.7 1462.09 Q1546.53 1460.7 1546.53 1458.11 Q1546.53 1455.45 1544.63 1454.04 Q1542.75 1452.6 1539.24 1452.6 Q1537.31 1452.6 1535.12 1453.02 Q1532.92 1453.44 1530.28 1454.31 L1530.28 1450.15 Q1532.94 1449.41 1535.25 1449.04 Q1537.59 1448.67 1539.65 1448.67 Q1544.98 1448.67 1548.08 1451.1 Q1551.18 1453.5 1551.18 1457.63 Q1551.18 1460.5 1549.54 1462.49 Q1547.89 1464.45 1544.86 1465.22 Z" fill="#000000" fill-rule="evenodd" fill-opacity="1" /><path clip-path="url(#clip850)" d="M 0 0 M1860.12 1452.37 Q1856.51 1452.37 1854.68 1455.94 Q1852.88 1459.48 1852.88 1466.61 Q1852.88 1473.71 1854.68 1477.28 Q1856.51 1480.82 1860.12 1480.82 Q1863.76 1480.82 1865.56 1477.28 Q1867.39 1473.71 1867.39 1466.61 Q1867.39 1459.48 1865.56 1455.94 Q1863.76 1452.37 1860.12 1452.37 M1860.12 1448.67 Q1865.93 1448.67 1868.99 1453.27 Q1872.07 1457.86 1872.07 1466.61 Q1872.07 1475.33 1868.99 1479.94 Q1865.93 1484.52 1860.12 1484.52 Q1854.31 1484.52 1851.23 1479.94 Q1848.18 1475.33 1848.18 1466.61 Q1848.18 1457.86 1851.23 1453.27 Q1854.31 1448.67 1860.12 1448.67 Z" fill="#000000" fill-rule="evenodd" fill-opacity="1" /><path clip-path="url(#clip850)" d="M 0 0 M1880.28 1477.97 L1885.17 1477.97 L1885.17 1483.85 L1880.28 1483.85 L1880.28 1477.97 Z" fill="#000000" fill-rule="evenodd" fill-opacity="1" /><path clip-path="url(#clip850)" d="M 0 0 M1905.35 1452.37 Q1901.74 1452.37 1899.91 1455.94 Q1898.11 1459.48 1898.11 1466.61 Q1898.11 1473.71 1899.91 1477.28 Q1901.74 1480.82 1905.35 1480.82 Q1908.99 1480.82 1910.79 1477.28 Q1912.62 1473.71 1912.62 1466.61 Q1912.62 1459.48 1910.79 1455.94 Q1908.99 1452.37 1905.35 1452.37 M1905.35 1448.67 Q1911.16 1448.67 1914.22 1453.27 Q1917.3 1457.86 1917.3 1466.61 Q1917.3 1475.33 1914.22 1479.94 Q1911.16 1484.52 1905.35 1484.52 Q1899.54 1484.52 1896.46 1479.94 Q1893.41 1475.33 1893.41 1466.61 Q1893.41 1457.86 1896.46 1453.27 Q1899.54 1448.67 1905.35 1448.67 Z" fill="#000000" fill-rule="evenodd" fill-opacity="1" /><path clip-path="url(#clip850)" d="M 0 0 M1938.36 1453.37 L1926.56 1471.81 L1938.36 1471.81 L1938.36 1453.37 M1937.13 1449.29 L1943.01 1449.29 L1943.01 1471.81 L1947.94 1471.81 L1947.94 1475.7 L1943.01 1475.7 L1943.01 1483.85 L1938.36 1483.85 L1938.36 1475.7 L1922.76 1475.7 L1922.76 1471.19 L1937.13 1449.29 Z" fill="#000000" fill-rule="evenodd" fill-opacity="1" /><path clip-path="url(#clip850)" d="M 0 0 M2256.25 1452.37 Q2252.64 1452.37 2250.81 1455.94 Q2249 1459.48 2249 1466.61 Q2249 1473.71 2250.81 1477.28 Q2252.64 1480.82 2256.25 1480.82 Q2259.88 1480.82 2261.69 1477.28 Q2263.52 1473.71 2263.52 1466.61 Q2263.52 1459.48 2261.69 1455.94 Q2259.88 1452.37 2256.25 1452.37 M2256.25 1448.67 Q2262.06 1448.67 2265.11 1453.27 Q2268.19 1457.86 2268.19 1466.61 Q2268.19 1475.33 2265.11 1479.94 Q2262.06 1484.52 2256.25 1484.52 Q2250.44 1484.52 2247.36 1479.94 Q2244.3 1475.33 2244.3 1466.61 Q2244.3 1457.86 2247.36 1453.27 Q2250.44 1448.67 2256.25 1448.67 Z" fill="#000000" fill-rule="evenodd" fill-opacity="1" /><path clip-path="url(#clip850)" d="M 0 0 M2276.41 1477.97 L2281.3 1477.97 L2281.3 1483.85 L2276.41 1483.85 L2276.41 1477.97 Z" fill="#000000" fill-rule="evenodd" fill-opacity="1" /><path clip-path="url(#clip850)" d="M 0 0 M2301.48 1452.37 Q2297.87 1452.37 2296.04 1455.94 Q2294.23 1459.48 2294.23 1466.61 Q2294.23 1473.71 2296.04 1477.28 Q2297.87 1480.82 2301.48 1480.82 Q2305.11 1480.82 2306.92 1477.28 Q2308.75 1473.71 2308.75 1466.61 Q2308.75 1459.48 2306.92 1455.94 Q2305.11 1452.37 2301.48 1452.37 M2301.48 1448.67 Q2307.29 1448.67 2310.35 1453.27 Q2313.42 1457.86 2313.42 1466.61 Q2313.42 1475.33 2310.35 1479.94 Q2307.29 1484.52 2301.48 1484.52 Q2295.67 1484.52 2292.59 1479.94 Q2289.54 1475.33 2289.54 1466.61 Q2289.54 1457.86 2292.59 1453.27 Q2295.67 1448.67 2301.48 1448.67 Z" fill="#000000" fill-rule="evenodd" fill-opacity="1" /><path clip-path="url(#clip850)" d="M 0 0 M2321.69 1449.29 L2340.04 1449.29 L2340.04 1453.23 L2325.97 1453.23 L2325.97 1461.7 Q2326.99 1461.35 2328.01 1461.19 Q2329.03 1461 2330.04 1461 Q2335.83 1461 2339.21 1464.18 Q2342.59 1467.35 2342.59 1472.76 Q2342.59 1478.34 2339.12 1481.44 Q2335.65 1484.52 2329.33 1484.52 Q2327.15 1484.52 2324.88 1484.15 Q2322.64 1483.78 2320.23 1483.04 L2320.23 1478.34 Q2322.31 1479.48 2324.54 1480.03 Q2326.76 1480.59 2329.23 1480.59 Q2333.24 1480.59 2335.58 1478.48 Q2337.92 1476.38 2337.92 1472.76 Q2337.92 1469.15 2335.58 1467.05 Q2333.24 1464.94 2329.23 1464.94 Q2327.36 1464.94 2325.48 1465.36 Q2323.63 1465.77 2321.69 1466.65 L2321.69 1449.29 Z" fill="#000000" fill-rule="evenodd" fill-opacity="1" /><path clip-path="url(#clip850)" d="M 0 0 M1159.3 1520.52 L1199.5 1520.52 L1199.5 1525.93 L1182.63 1525.93 L1182.63 1568.04 L1176.17 1568.04 L1176.17 1525.93 L1159.3 1525.93 L1159.3 1520.52 Z" fill="#000000" fill-rule="evenodd" fill-opacity="1" /><path clip-path="url(#clip850)" d="M 0 0 M1203.45 1532.4 L1209.3 1532.4 L1209.3 1568.04 L1203.45 1568.04 L1203.45 1532.4 M1203.45 1518.52 L1209.3 1518.52 L1209.3 1525.93 L1203.45 1525.93 L1203.45 1518.52 Z" fill="#000000" fill-rule="evenodd" fill-opacity="1" /><path clip-path="url(#clip850)" d="M 0 0 M1249.31 1539.24 Q1251.51 1535.29 1254.56 1533.41 Q1257.62 1531.54 1261.76 1531.54 Q1267.33 1531.54 1270.35 1535.45 Q1273.37 1539.33 1273.37 1546.53 L1273.37 1568.04 L1267.49 1568.04 L1267.49 1546.72 Q1267.49 1541.59 1265.67 1539.11 Q1263.86 1536.63 1260.13 1536.63 Q1255.58 1536.63 1252.94 1539.65 Q1250.3 1542.68 1250.3 1547.9 L1250.3 1568.04 L1244.41 1568.04 L1244.41 1546.72 Q1244.41 1541.56 1242.6 1539.11 Q1240.78 1536.63 1236.99 1536.63 Q1232.51 1536.63 1229.86 1539.68 Q1227.22 1542.71 1227.22 1547.9 L1227.22 1568.04 L1221.33 1568.04 L1221.33 1532.4 L1227.22 1532.4 L1227.22 1537.93 Q1229.23 1534.66 1232.03 1533.1 Q1234.83 1531.54 1238.68 1531.54 Q1242.56 1531.54 1245.27 1533.51 Q1248.01 1535.48 1249.31 1539.24 Z" fill="#000000" fill-rule="evenodd" fill-opacity="1" /><path clip-path="url(#clip850)" d="M 0 0 M1315.55 1548.76 L1315.55 1551.62 L1288.62 1551.62 Q1289 1557.67 1292.25 1560.85 Q1295.53 1564 1301.35 1564 Q1304.73 1564 1307.88 1563.17 Q1311.06 1562.35 1314.18 1560.69 L1314.18 1566.23 Q1311.03 1567.57 1307.72 1568.27 Q1304.41 1568.97 1301 1568.97 Q1292.47 1568.97 1287.47 1564 Q1282.51 1559.04 1282.51 1550.57 Q1282.51 1541.82 1287.22 1536.69 Q1291.96 1531.54 1299.98 1531.54 Q1307.18 1531.54 1311.35 1536.18 Q1315.55 1540.8 1315.55 1548.76 M1309.69 1547.04 Q1309.63 1542.23 1306.99 1539.37 Q1304.38 1536.5 1300.05 1536.5 Q1295.14 1536.5 1292.18 1539.27 Q1289.26 1542.04 1288.81 1547.07 L1309.69 1547.04 Z" fill="#000000" fill-rule="evenodd" fill-opacity="1" /><path clip-path="url(#clip850)" d="M 0 0 M1345.88 1532.4 L1351.74 1532.4 L1351.74 1568.04 L1345.88 1568.04 L1345.88 1532.4 M1345.88 1518.52 L1351.74 1518.52 L1351.74 1525.93 L1345.88 1525.93 L1345.88 1518.52 Z" fill="#000000" fill-rule="evenodd" fill-opacity="1" /><path clip-path="url(#clip850)" d="M 0 0 M1393.62 1546.53 L1393.62 1568.04 L1387.77 1568.04 L1387.77 1546.72 Q1387.77 1541.66 1385.79 1539.14 Q1383.82 1536.63 1379.87 1536.63 Q1375.13 1536.63 1372.39 1539.65 Q1369.66 1542.68 1369.66 1547.9 L1369.66 1568.04 L1363.77 1568.04 L1363.77 1532.4 L1369.66 1532.4 L1369.66 1537.93 Q1371.76 1534.72 1374.59 1533.13 Q1377.45 1531.54 1381.18 1531.54 Q1387.32 1531.54 1390.47 1535.36 Q1393.62 1539.14 1393.62 1546.53 Z" fill="#000000" fill-rule="evenodd" fill-opacity="1" /><path clip-path="url(#clip850)" d="M 0 0 M1448.75 1533.45 L1448.75 1538.98 Q1446.27 1537.71 1443.59 1537.07 Q1440.92 1536.44 1438.06 1536.44 Q1433.69 1536.44 1431.5 1537.77 Q1429.33 1539.11 1429.33 1541.79 Q1429.33 1543.82 1430.89 1545 Q1432.45 1546.15 1437.16 1547.2 L1439.17 1547.64 Q1445.41 1548.98 1448.02 1551.43 Q1450.66 1553.85 1450.66 1558.21 Q1450.66 1563.17 1446.71 1566.07 Q1442.8 1568.97 1435.92 1568.97 Q1433.06 1568.97 1429.94 1568.39 Q1426.85 1567.85 1423.41 1566.74 L1423.41 1560.69 Q1426.66 1562.38 1429.81 1563.24 Q1432.96 1564.07 1436.05 1564.07 Q1440.19 1564.07 1442.42 1562.66 Q1444.64 1561.23 1444.64 1558.65 Q1444.64 1556.27 1443.02 1554.99 Q1441.43 1553.72 1435.99 1552.54 L1433.95 1552.07 Q1428.51 1550.92 1426.09 1548.56 Q1423.67 1546.18 1423.67 1542.04 Q1423.67 1537.01 1427.23 1534.27 Q1430.8 1531.54 1437.35 1531.54 Q1440.6 1531.54 1443.47 1532.01 Q1446.33 1532.49 1448.75 1533.45 Z" fill="#000000" fill-rule="evenodd" fill-opacity="1" /><polyline clip-path="url(#clip852)" style="stroke:#000000; stroke-width:2; stroke-opacity:0.1; fill:none" points="
  257.204,1384.24 2352.76,1384.24 
  "/>
<polyline clip-path="url(#clip852)" style="stroke:#000000; stroke-width:2; stroke-opacity:0.1; fill:none" points="
  257.204,1059.73 2352.76,1059.73 
  "/>
<polyline clip-path="url(#clip852)" style="stroke:#000000; stroke-width:2; stroke-opacity:0.1; fill:none" points="
  257.204,735.212 2352.76,735.212 
  "/>
<polyline clip-path="url(#clip852)" style="stroke:#000000; stroke-width:2; stroke-opacity:0.1; fill:none" points="
  257.204,410.697 2352.76,410.697 
  "/>
<polyline clip-path="url(#clip852)" style="stroke:#000000; stroke-width:2; stroke-opacity:0.1; fill:none" points="
  257.204,86.1816 2352.76,86.1816 
  "/>
<polyline clip-path="url(#clip850)" style="stroke:#000000; stroke-width:4; stroke-opacity:1; fill:none" points="
  257.204,1423.18 257.204,47.2441 
  "/>
<polyline clip-path="url(#clip850)" style="stroke:#000000; stroke-width:4; stroke-opacity:1; fill:none" points="
  257.204,1384.24 282.351,1384.24 
  "/>
<polyline clip-path="url(#clip850)" style="stroke:#000000; stroke-width:4; stroke-opacity:1; fill:none" points="
  257.204,1059.73 282.351,1059.73 
  "/>
<polyline clip-path="url(#clip850)" style="stroke:#000000; stroke-width:4; stroke-opacity:1; fill:none" points="
  257.204,735.212 282.351,735.212 
  "/>
<polyline clip-path="url(#clip850)" style="stroke:#000000; stroke-width:4; stroke-opacity:1; fill:none" points="
  257.204,410.697 282.351,410.697 
  "/>
<polyline clip-path="url(#clip850)" style="stroke:#000000; stroke-width:4; stroke-opacity:1; fill:none" points="
  257.204,86.1816 282.351,86.1816 
  "/>
<path clip-path="url(#clip850)" d="M 0 0 M114.26 1384.69 L143.936 1384.69 L143.936 1388.63 L114.26 1388.63 L114.26 1384.69 Z" fill="#000000" fill-rule="evenodd" fill-opacity="1" /><path clip-path="url(#clip850)" d="M 0 0 M154.839 1397.59 L162.477 1397.59 L162.477 1371.22 L154.167 1372.89 L154.167 1368.63 L162.431 1366.96 L167.107 1366.96 L167.107 1397.59 L174.746 1397.59 L174.746 1401.52 L154.839 1401.52 L154.839 1397.59 Z" fill="#000000" fill-rule="evenodd" fill-opacity="1" /><path clip-path="url(#clip850)" d="M 0 0 M184.19 1395.64 L189.075 1395.64 L189.075 1401.52 L184.19 1401.52 L184.19 1395.64 Z" fill="#000000" fill-rule="evenodd" fill-opacity="1" /><path clip-path="url(#clip850)" d="M 0 0 M209.26 1370.04 Q205.649 1370.04 203.82 1373.61 Q202.014 1377.15 202.014 1384.28 Q202.014 1391.38 203.82 1394.95 Q205.649 1398.49 209.26 1398.49 Q212.894 1398.49 214.699 1394.95 Q216.528 1391.38 216.528 1384.28 Q216.528 1377.15 214.699 1373.61 Q212.894 1370.04 209.26 1370.04 M209.26 1366.34 Q215.07 1366.34 218.125 1370.94 Q221.204 1375.53 221.204 1384.28 Q221.204 1393 218.125 1397.61 Q215.07 1402.19 209.26 1402.19 Q203.449 1402.19 200.371 1397.61 Q197.315 1393 197.315 1384.28 Q197.315 1375.53 200.371 1370.94 Q203.449 1366.34 209.26 1366.34 Z" fill="#000000" fill-rule="evenodd" fill-opacity="1" /><path clip-path="url(#clip850)" d="M 0 0 M115.256 1060.18 L144.931 1060.18 L144.931 1064.11 L115.256 1064.11 L115.256 1060.18 Z" fill="#000000" fill-rule="evenodd" fill-opacity="1" /><path clip-path="url(#clip850)" d="M 0 0 M165.024 1045.53 Q161.413 1045.53 159.584 1049.09 Q157.778 1052.63 157.778 1059.76 Q157.778 1066.87 159.584 1070.43 Q161.413 1073.97 165.024 1073.97 Q168.658 1073.97 170.464 1070.43 Q172.292 1066.87 172.292 1059.76 Q172.292 1052.63 170.464 1049.09 Q168.658 1045.53 165.024 1045.53 M165.024 1041.82 Q170.834 1041.82 173.889 1046.43 Q176.968 1051.01 176.968 1059.76 Q176.968 1068.49 173.889 1073.1 Q170.834 1077.68 165.024 1077.68 Q159.214 1077.68 156.135 1073.1 Q153.079 1068.49 153.079 1059.76 Q153.079 1051.01 156.135 1046.43 Q159.214 1041.82 165.024 1041.82 Z" fill="#000000" fill-rule="evenodd" fill-opacity="1" /><path clip-path="url(#clip850)" d="M 0 0 M185.186 1071.13 L190.07 1071.13 L190.07 1077.01 L185.186 1077.01 L185.186 1071.13 Z" fill="#000000" fill-rule="evenodd" fill-opacity="1" /><path clip-path="url(#clip850)" d="M 0 0 M200.301 1042.45 L218.658 1042.45 L218.658 1046.38 L204.584 1046.38 L204.584 1054.85 Q205.602 1054.51 206.621 1054.35 Q207.639 1054.16 208.658 1054.16 Q214.445 1054.16 217.824 1057.33 Q221.204 1060.5 221.204 1065.92 Q221.204 1071.5 217.732 1074.6 Q214.26 1077.68 207.94 1077.68 Q205.764 1077.68 203.496 1077.31 Q201.25 1076.94 198.843 1076.2 L198.843 1071.5 Q200.926 1072.63 203.149 1073.19 Q205.371 1073.74 207.848 1073.74 Q211.852 1073.74 214.19 1071.64 Q216.528 1069.53 216.528 1065.92 Q216.528 1062.31 214.19 1060.2 Q211.852 1058.1 207.848 1058.1 Q205.973 1058.1 204.098 1058.51 Q202.246 1058.93 200.301 1059.81 L200.301 1042.45 Z" fill="#000000" fill-rule="evenodd" fill-opacity="1" /><path clip-path="url(#clip850)" d="M 0 0 M164.028 721.011 Q160.417 721.011 158.589 724.575 Q156.783 728.117 156.783 735.247 Q156.783 742.353 158.589 745.918 Q160.417 749.46 164.028 749.46 Q167.663 749.46 169.468 745.918 Q171.297 742.353 171.297 735.247 Q171.297 728.117 169.468 724.575 Q167.663 721.011 164.028 721.011 M164.028 717.307 Q169.839 717.307 172.894 721.913 Q175.973 726.497 175.973 735.247 Q175.973 743.973 172.894 748.58 Q169.839 753.163 164.028 753.163 Q158.218 753.163 155.14 748.58 Q152.084 743.973 152.084 735.247 Q152.084 726.497 155.14 721.913 Q158.218 717.307 164.028 717.307 Z" fill="#000000" fill-rule="evenodd" fill-opacity="1" /><path clip-path="url(#clip850)" d="M 0 0 M184.19 746.612 L189.075 746.612 L189.075 752.492 L184.19 752.492 L184.19 746.612 Z" fill="#000000" fill-rule="evenodd" fill-opacity="1" /><path clip-path="url(#clip850)" d="M 0 0 M209.26 721.011 Q205.649 721.011 203.82 724.575 Q202.014 728.117 202.014 735.247 Q202.014 742.353 203.82 745.918 Q205.649 749.46 209.26 749.46 Q212.894 749.46 214.699 745.918 Q216.528 742.353 216.528 735.247 Q216.528 728.117 214.699 724.575 Q212.894 721.011 209.26 721.011 M209.26 717.307 Q215.07 717.307 218.125 721.913 Q221.204 726.497 221.204 735.247 Q221.204 743.973 218.125 748.58 Q215.07 753.163 209.26 753.163 Q203.449 753.163 200.371 748.58 Q197.315 743.973 197.315 735.247 Q197.315 726.497 200.371 721.913 Q203.449 717.307 209.26 717.307 Z" fill="#000000" fill-rule="evenodd" fill-opacity="1" /><path clip-path="url(#clip850)" d="M 0 0 M165.024 396.495 Q161.413 396.495 159.584 400.06 Q157.778 403.602 157.778 410.731 Q157.778 417.838 159.584 421.403 Q161.413 424.944 165.024 424.944 Q168.658 424.944 170.464 421.403 Q172.292 417.838 172.292 410.731 Q172.292 403.602 170.464 400.06 Q168.658 396.495 165.024 396.495 M165.024 392.792 Q170.834 392.792 173.889 397.398 Q176.968 401.982 176.968 410.731 Q176.968 419.458 173.889 424.065 Q170.834 428.648 165.024 428.648 Q159.214 428.648 156.135 424.065 Q153.079 419.458 153.079 410.731 Q153.079 401.982 156.135 397.398 Q159.214 392.792 165.024 392.792 Z" fill="#000000" fill-rule="evenodd" fill-opacity="1" /><path clip-path="url(#clip850)" d="M 0 0 M185.186 422.097 L190.07 422.097 L190.07 427.977 L185.186 427.977 L185.186 422.097 Z" fill="#000000" fill-rule="evenodd" fill-opacity="1" /><path clip-path="url(#clip850)" d="M 0 0 M200.301 393.417 L218.658 393.417 L218.658 397.352 L204.584 397.352 L204.584 405.824 Q205.602 405.477 206.621 405.315 Q207.639 405.13 208.658 405.13 Q214.445 405.13 217.824 408.301 Q221.204 411.472 221.204 416.889 Q221.204 422.468 217.732 425.569 Q214.26 428.648 207.94 428.648 Q205.764 428.648 203.496 428.278 Q201.25 427.907 198.843 427.167 L198.843 422.468 Q200.926 423.602 203.149 424.157 Q205.371 424.713 207.848 424.713 Q211.852 424.713 214.19 422.606 Q216.528 420.5 216.528 416.889 Q216.528 413.278 214.19 411.171 Q211.852 409.065 207.848 409.065 Q205.973 409.065 204.098 409.481 Q202.246 409.898 200.301 410.778 L200.301 393.417 Z" fill="#000000" fill-rule="evenodd" fill-opacity="1" /><path clip-path="url(#clip850)" d="M 0 0 M154.839 99.5264 L162.477 99.5264 L162.477 73.1608 L154.167 74.8274 L154.167 70.5682 L162.431 68.9016 L167.107 68.9016 L167.107 99.5264 L174.746 99.5264 L174.746 103.462 L154.839 103.462 L154.839 99.5264 Z" fill="#000000" fill-rule="evenodd" fill-opacity="1" /><path clip-path="url(#clip850)" d="M 0 0 M184.19 97.582 L189.075 97.582 L189.075 103.462 L184.19 103.462 L184.19 97.582 Z" fill="#000000" fill-rule="evenodd" fill-opacity="1" /><path clip-path="url(#clip850)" d="M 0 0 M209.26 71.9802 Q205.649 71.9802 203.82 75.545 Q202.014 79.0867 202.014 86.2163 Q202.014 93.3227 203.82 96.8875 Q205.649 100.429 209.26 100.429 Q212.894 100.429 214.699 96.8875 Q216.528 93.3227 216.528 86.2163 Q216.528 79.0867 214.699 75.545 Q212.894 71.9802 209.26 71.9802 M209.26 68.2766 Q215.07 68.2766 218.125 72.883 Q221.204 77.4663 221.204 86.2163 Q221.204 94.9431 218.125 99.5495 Q215.07 104.133 209.26 104.133 Q203.449 104.133 200.371 99.5495 Q197.315 94.9431 197.315 86.2163 Q197.315 77.4663 200.371 72.883 Q203.449 68.2766 209.26 68.2766 Z" fill="#000000" fill-rule="evenodd" fill-opacity="1" /><path clip-path="url(#clip850)" d="M 0 0 M22.818 878.472 L46.4666 887.193 L46.4666 869.719 L22.818 878.472 M16.4842 882.101 L16.4842 874.812 L64.0042 856.701 L64.0042 863.385 L51.8138 867.714 L51.8138 889.135 L64.0042 893.463 L64.0042 900.243 L16.4842 882.101 Z" fill="#000000" fill-rule="evenodd" fill-opacity="1" /><path clip-path="url(#clip850)" d="M 0 0 M35.1993 822.263 Q31.2526 820.067 29.3747 817.011 Q27.4968 813.956 27.4968 809.818 Q27.4968 804.248 31.4117 801.224 Q35.2948 798.201 42.4881 798.201 L64.0042 798.201 L64.0042 804.089 L42.679 804.089 Q37.5546 804.089 35.072 805.903 Q32.5894 807.717 32.5894 811.441 Q32.5894 815.993 35.6131 818.635 Q38.6368 821.276 43.8567 821.276 L64.0042 821.276 L64.0042 827.165 L42.679 827.165 Q37.5228 827.165 35.072 828.979 Q32.5894 830.793 32.5894 834.581 Q32.5894 839.068 35.6449 841.71 Q38.6686 844.352 43.8567 844.352 L64.0042 844.352 L64.0042 850.24 L28.3562 850.24 L28.3562 844.352 L33.8944 844.352 Q30.616 842.347 29.0564 839.546 Q27.4968 836.745 27.4968 832.894 Q27.4968 829.011 29.4702 826.305 Q31.4436 823.568 35.1993 822.263 Z" fill="#000000" fill-rule="evenodd" fill-opacity="1" /><path clip-path="url(#clip850)" d="M 0 0 M58.657 780.854 L77.5631 780.854 L77.5631 786.742 L28.3562 786.742 L28.3562 780.854 L33.7671 780.854 Q30.5842 779.008 29.0564 776.207 Q27.4968 773.374 27.4968 769.459 Q27.4968 762.966 32.6531 758.924 Q37.8093 754.85 46.212 754.85 Q54.6147 754.85 59.771 758.924 Q64.9272 762.966 64.9272 769.459 Q64.9272 773.374 63.3994 776.207 Q61.8398 779.008 58.657 780.854 M46.212 760.929 Q39.7508 760.929 36.0905 763.603 Q32.3984 766.245 32.3984 770.892 Q32.3984 775.539 36.0905 778.212 Q39.7508 780.854 46.212 780.854 Q52.6732 780.854 56.3653 778.212 Q60.0256 775.539 60.0256 770.892 Q60.0256 766.245 56.3653 763.603 Q52.6732 760.929 46.212 760.929 Z" fill="#000000" fill-rule="evenodd" fill-opacity="1" /><path clip-path="url(#clip850)" d="M 0 0 M14.479 745.142 L14.479 739.286 L64.0042 739.286 L64.0042 745.142 L14.479 745.142 Z" fill="#000000" fill-rule="evenodd" fill-opacity="1" /><path clip-path="url(#clip850)" d="M 0 0 M28.3562 727.032 L28.3562 721.176 L64.0042 721.176 L64.0042 727.032 L28.3562 727.032 M14.479 727.032 L14.479 721.176 L21.895 721.176 L21.895 727.032 L14.479 727.032 Z" fill="#000000" fill-rule="evenodd" fill-opacity="1" /><path clip-path="url(#clip850)" d="M 0 0 M18.2347 703.129 L28.3562 703.129 L28.3562 691.066 L32.9077 691.066 L32.9077 703.129 L52.2594 703.129 Q56.6199 703.129 57.8613 701.951 Q59.1026 700.742 59.1026 697.081 L59.1026 691.066 L64.0042 691.066 L64.0042 697.081 Q64.0042 703.861 61.4897 706.439 Q58.9434 709.017 52.2594 709.017 L32.9077 709.017 L32.9077 713.314 L28.3562 713.314 L28.3562 709.017 L18.2347 709.017 L18.2347 703.129 Z" fill="#000000" fill-rule="evenodd" fill-opacity="1" /><path clip-path="url(#clip850)" d="M 0 0 M49.9359 683.968 L28.3562 683.968 L28.3562 678.112 L49.7131 678.112 Q54.7739 678.112 57.3202 676.138 Q59.8346 674.165 59.8346 670.218 Q59.8346 665.476 56.8109 662.738 Q53.7872 659.969 48.5673 659.969 L28.3562 659.969 L28.3562 654.113 L64.0042 654.113 L64.0042 659.969 L58.5296 659.969 Q61.7762 662.102 63.3676 664.935 Q64.9272 667.735 64.9272 671.459 Q64.9272 677.602 61.1078 680.785 Q57.2883 683.968 49.9359 683.968 M27.4968 669.231 L27.4968 669.231 Z" fill="#000000" fill-rule="evenodd" fill-opacity="1" /><path clip-path="url(#clip850)" d="M 0 0 M33.7671 618.592 L14.479 618.592 L14.479 612.736 L64.0042 612.736 L64.0042 618.592 L58.657 618.592 Q61.8398 620.438 63.3994 623.271 Q64.9272 626.072 64.9272 630.019 Q64.9272 636.48 59.771 640.554 Q54.6147 644.596 46.212 644.596 Q37.8093 644.596 32.6531 640.554 Q27.4968 636.48 27.4968 630.019 Q27.4968 626.072 29.0564 623.271 Q30.5842 620.438 33.7671 618.592 M46.212 638.549 Q52.6732 638.549 56.3653 635.907 Q60.0256 633.233 60.0256 628.586 Q60.0256 623.939 56.3653 621.266 Q52.6732 618.592 46.212 618.592 Q39.7508 618.592 36.0905 621.266 Q32.3984 623.939 32.3984 628.586 Q32.3984 633.233 36.0905 635.907 Q39.7508 638.549 46.212 638.549 Z" fill="#000000" fill-rule="evenodd" fill-opacity="1" /><path clip-path="url(#clip850)" d="M 0 0 M44.7161 570.181 L47.5806 570.181 L47.5806 597.108 Q53.6281 596.726 56.8109 593.48 Q59.9619 590.201 59.9619 584.377 Q59.9619 581.003 59.1344 577.852 Q58.3069 574.669 56.6518 571.55 L62.1899 571.55 Q63.5267 574.701 64.227 578.011 Q64.9272 581.321 64.9272 584.727 Q64.9272 593.257 59.9619 598.254 Q54.9967 603.219 46.5303 603.219 Q37.7774 603.219 32.6531 598.508 Q27.4968 593.766 27.4968 585.745 Q27.4968 578.552 32.1438 574.382 Q36.7589 570.181 44.7161 570.181 M42.9973 576.037 Q38.1912 576.101 35.3266 578.743 Q32.4621 581.353 32.4621 585.682 Q32.4621 590.583 35.2312 593.543 Q38.0002 596.471 43.0292 596.917 L42.9973 576.037 Z" fill="#000000" fill-rule="evenodd" fill-opacity="1" /><polyline clip-path="url(#clip852)" style="stroke:#009af9; stroke-width:4; stroke-opacity:1; fill:none" points="
  316.512,735.212 317.409,725.965 318.305,716.72 319.202,707.479 320.098,698.244 320.995,689.015 321.892,679.797 322.788,670.589 323.685,661.395 324.581,652.216 
  325.478,643.053 326.374,633.91 327.271,624.786 328.168,615.686 329.064,606.609 329.961,597.559 330.857,588.536 331.754,579.544 332.65,570.582 333.547,561.655 
  334.443,552.762 335.34,543.907 336.237,535.09 337.133,526.314 338.03,517.581 338.926,508.891 339.823,500.248 340.719,491.652 341.616,483.106 342.513,474.611 
  343.409,466.169 344.306,457.781 345.202,449.45 346.099,441.176 346.995,432.963 347.892,424.811 348.789,416.721 349.685,408.697 350.582,400.738 351.478,392.848 
  352.375,385.027 353.271,377.277 354.168,369.6 355.065,361.997 355.961,354.47 356.858,347.02 357.754,339.649 358.651,332.358 359.547,325.149 360.444,318.023 
  361.341,310.982 362.237,304.027 363.134,297.16 364.03,290.381 364.927,283.693 365.823,277.096 366.72,270.593 367.617,264.183 368.513,257.87 369.41,251.653 
  370.306,245.534 371.203,239.515 372.099,233.596 372.996,227.78 373.893,222.066 374.789,216.456 375.686,210.952 376.582,205.554 377.479,200.264 378.375,195.082 
  379.272,190.01 380.169,185.048 381.065,180.198 381.962,175.461 382.858,170.838 383.755,166.329 384.651,161.935 385.548,157.658 386.445,153.498 387.341,149.456 
  388.238,145.534 389.134,141.73 390.031,138.048 390.927,134.486 391.824,131.047 392.721,127.73 393.617,124.536 394.514,121.466 395.41,118.521 396.307,115.701 
  397.203,113.007 398.1,110.44 398.996,107.999 399.893,105.685 400.79,103.499 401.686,101.441 402.583,99.5123 403.479,97.7123 404.376,96.0418 405.272,94.501 
  406.169,93.0902 407.066,91.8098 407.962,90.66 408.859,89.641 409.755,88.7531 410.652,87.9964 411.548,87.3711 412.445,86.8772 413.342,86.515 414.238,86.2845 
  415.135,86.1857 416.031,86.2186 416.928,86.3833 417.824,86.6797 418.721,87.1077 419.618,87.6673 420.514,88.3583 421.411,89.1807 422.307,90.1341 423.204,91.2185 
  424.1,92.4337 424.997,93.7793 425.894,95.2551 426.79,96.8609 427.687,98.5962 428.583,100.461 429.48,102.454 430.376,104.576 431.273,106.826 432.17,109.203 
  433.066,111.708 433.963,114.339 434.859,117.096 435.756,119.978 436.652,122.986 437.549,126.117 438.446,129.373 439.342,132.751 440.239,136.252 441.135,139.874 
  442.032,143.617 442.928,147.48 443.825,151.463 444.722,155.563 445.618,159.782 446.515,164.117 447.411,168.569 448.308,173.135 449.204,177.816 450.101,182.609 
  450.998,187.515 451.894,192.532 452.791,197.659 453.687,202.895 454.584,208.24 455.48,213.691 456.377,219.248 457.274,224.91 458.17,230.675 459.067,236.543 
  459.963,242.512 460.86,248.581 461.756,254.749 462.653,261.014 463.549,267.376 464.446,273.833 465.343,280.383 466.239,287.026 467.136,293.759 468.032,300.582 
  468.929,307.494 469.825,314.492 470.722,321.576 471.619,328.743 472.515,335.993 473.412,343.325 474.308,350.735 475.205,358.224 476.101,365.789 476.998,373.43 
  477.895,381.143 478.791,388.929 479.688,396.785 480.584,404.709 481.481,412.701 482.377,420.758 483.274,428.879 484.171,437.062 485.067,445.306 485.964,453.608 
  486.86,461.968 487.757,470.383 488.653,478.852 489.55,487.373 490.447,495.944 491.343,504.564 492.24,513.23 493.136,521.942 494.033,530.697 494.929,539.494 
  495.826,548.33 496.723,557.204 497.619,566.114 498.516,575.059 499.412,584.036 500.309,593.044 501.205,602.081 502.102,611.144 502.999,620.233 503.895,629.345 
  504.792,638.479 505.688,647.632 506.585,656.803 507.481,665.991 508.378,675.192 509.275,684.405 510.171,693.628 511.068,702.86 511.964,712.099 512.861,721.342 
  513.757,730.588 514.654,739.835 515.551,749.082 516.447,758.325 517.344,767.563 518.24,776.795 519.137,786.019 520.033,795.232 520.93,804.433 521.827,813.62 
  522.723,822.792 523.62,831.945 524.516,841.079 525.413,850.191 526.309,859.28 527.206,868.343 528.103,877.38 528.999,886.388 529.896,895.365 530.792,904.31 
  531.689,913.22 532.585,922.094 533.482,930.93 534.378,939.727 535.275,948.482 536.172,957.193 537.068,965.86 537.965,974.48 538.861,983.051 539.758,991.572 
  540.654,1000.04 541.551,1008.46 542.448,1016.82 543.344,1025.12 544.241,1033.36 545.137,1041.54 546.034,1049.67 546.93,1057.72 547.827,1065.71 548.724,1073.64 
  549.62,1081.5 550.517,1089.28 551.413,1096.99 552.31,1104.63 553.206,1112.2 554.103,1119.69 555,1127.1 555.896,1134.43 556.793,1141.68 557.689,1148.85 
  558.586,1155.93 559.482,1162.93 560.379,1169.84 561.276,1176.66 562.172,1183.4 563.069,1190.04 563.965,1196.59 564.862,1203.05 565.758,1209.41 566.655,1215.67 
  567.552,1221.84 568.448,1227.91 569.345,1233.88 570.241,1239.75 571.138,1245.51 572.034,1251.18 572.931,1256.73 573.828,1262.18 574.724,1267.53 575.621,1272.76 
  576.517,1277.89 577.414,1282.91 578.31,1287.81 579.207,1292.61 580.104,1297.29 581,1301.86 581.897,1306.31 582.793,1310.64 583.69,1314.86 584.586,1318.96 
  585.483,1322.94 586.38,1326.81 587.276,1330.55 588.173,1334.17 589.069,1337.67 589.966,1341.05 590.862,1344.31 591.759,1347.44 592.656,1350.45 593.552,1353.33 
  594.449,1356.09 595.345,1358.72 596.242,1361.22 597.138,1363.6 598.035,1365.85 598.931,1367.97 599.828,1369.96 600.725,1371.83 601.621,1373.56 602.518,1375.17 
  603.414,1376.64 604.311,1377.99 605.207,1379.21 606.104,1380.29 607.001,1381.24 607.897,1382.07 608.794,1382.76 609.69,1383.32 610.587,1383.74 611.483,1384.04 
  612.38,1384.21 613.277,1384.24 614.173,1384.14 615.07,1383.91 615.966,1383.55 616.863,1383.05 617.759,1382.43 618.656,1381.67 619.553,1380.78 620.449,1379.76 
  621.346,1378.61 622.242,1377.33 623.139,1375.92 624.035,1374.38 624.932,1372.71 625.829,1370.91 626.725,1368.98 627.622,1366.92 628.518,1364.74 629.415,1362.43 
  630.311,1359.98 631.208,1357.42 632.105,1354.72 633.001,1351.9 633.898,1348.96 634.794,1345.89 635.691,1342.69 636.587,1339.38 637.484,1335.94 638.381,1332.38 
  639.277,1328.69 640.174,1324.89 641.07,1320.97 641.967,1316.93 642.863,1312.77 643.76,1308.49 644.657,1304.1 645.553,1299.59 646.45,1294.96 647.346,1290.23 
  648.243,1285.38 649.139,1280.41 650.036,1275.34 650.933,1270.16 651.829,1264.87 652.726,1259.47 653.622,1253.97 654.519,1248.36 655.415,1242.64 656.312,1236.83 
  657.209,1230.91 658.105,1224.89 659.002,1218.77 659.898,1212.55 660.795,1206.24 661.691,1199.83 662.588,1193.33 663.484,1186.73 664.381,1180.04 665.278,1173.26 
  666.174,1166.4 667.071,1159.44 667.967,1152.4 668.864,1145.27 669.76,1138.07 670.657,1130.78 671.554,1123.4 672.45,1115.95 673.347,1108.43 674.243,1100.82 
  675.14,1093.15 676.036,1085.4 676.933,1077.58 677.83,1069.69 678.726,1061.73 679.623,1053.7 680.519,1045.61 681.416,1037.46 682.312,1029.25 683.209,1020.97 
  684.106,1012.64 685.002,1004.26 685.899,995.813 686.795,987.318 687.692,978.772 688.588,970.176 689.485,961.532 690.382,952.843 691.278,944.11 692.175,935.334 
  693.071,926.517 693.968,917.662 694.864,908.769 695.761,899.842 696.658,890.88 697.554,881.888 698.451,872.865 699.347,863.815 700.244,854.738 701.14,845.638 
  702.037,836.514 702.934,827.371 703.83,818.208 704.727,809.029 705.623,799.835 706.52,790.627 707.416,781.408 708.313,772.18 709.21,762.945 710.106,753.704 
  711.003,744.459 711.899,735.212 712.796,725.965 713.692,716.72 714.589,707.479 715.486,698.244 716.382,689.015 717.279,679.797 718.175,670.589 719.072,661.395 
  719.968,652.216 720.865,643.053 721.762,633.91 722.658,624.786 723.555,615.686 724.451,606.609 725.348,597.559 726.244,588.536 727.141,579.544 728.037,570.582 
  728.934,561.655 729.831,552.762 730.727,543.907 731.624,535.09 732.52,526.314 733.417,517.581 734.313,508.891 735.21,500.248 736.107,491.652 737.003,483.106 
  737.9,474.611 738.796,466.169 739.693,457.781 740.589,449.45 741.486,441.176 742.383,432.963 743.279,424.811 744.176,416.721 745.072,408.697 745.969,400.738 
  746.865,392.848 747.762,385.027 748.659,377.277 749.555,369.6 750.452,361.997 751.348,354.47 752.245,347.02 753.141,339.649 754.038,332.358 754.935,325.149 
  755.831,318.023 756.728,310.982 757.624,304.027 758.521,297.16 759.417,290.381 760.314,283.693 761.211,277.096 762.107,270.593 763.004,264.183 763.9,257.87 
  764.797,251.653 765.693,245.534 766.59,239.515 767.487,233.596 768.383,227.78 769.28,222.066 770.176,216.456 771.073,210.952 771.969,205.554 772.866,200.264 
  773.763,195.082 774.659,190.01 775.556,185.048 776.452,180.198 777.349,175.461 778.245,170.838 779.142,166.329 780.039,161.935 780.935,157.658 781.832,153.498 
  782.728,149.456 783.625,145.534 784.521,141.73 785.418,138.048 786.315,134.486 787.211,131.047 788.108,127.73 789.004,124.536 789.901,121.466 790.797,118.521 
  791.694,115.701 792.591,113.007 793.487,110.44 794.384,107.999 795.28,105.685 796.177,103.499 797.073,101.441 797.97,99.5123 798.866,97.7123 799.763,96.0418 
  800.66,94.501 801.556,93.0902 802.453,91.8098 803.349,90.66 804.246,89.641 805.142,88.7531 806.039,87.9964 806.936,87.3711 807.832,86.8772 808.729,86.515 
  809.625,86.2845 810.522,86.1857 811.418,86.2186 812.315,86.3833 813.212,86.6797 814.108,87.1077 815.005,87.6673 815.901,88.3583 816.798,89.1807 817.694,90.1341 
  818.591,91.2185 819.488,92.4337 820.384,93.7793 821.281,95.2551 822.177,96.8609 823.074,98.5962 823.97,100.461 824.867,102.454 825.764,104.576 826.66,106.826 
  827.557,109.203 828.453,111.708 829.35,114.339 830.246,117.096 831.143,119.978 832.04,122.986 832.936,126.117 833.833,129.373 834.729,132.751 835.626,136.252 
  836.522,139.874 837.419,143.617 838.316,147.48 839.212,151.463 840.109,155.563 841.005,159.782 841.902,164.117 842.798,168.569 843.695,173.135 844.592,177.816 
  845.488,182.609 846.385,187.515 847.281,192.532 848.178,197.659 849.074,202.895 849.971,208.24 850.868,213.691 851.764,219.248 852.661,224.91 853.557,230.675 
  854.454,236.543 855.35,242.512 856.247,248.581 857.144,254.749 858.04,261.014 858.937,267.376 859.833,273.833 860.73,280.383 861.626,287.026 862.523,293.759 
  863.419,300.582 864.316,307.494 865.213,314.492 866.109,321.576 867.006,328.743 867.902,335.993 868.799,343.325 869.695,350.735 870.592,358.224 871.489,365.789 
  872.385,373.43 873.282,381.143 874.178,388.929 875.075,396.785 875.971,404.709 876.868,412.701 877.765,420.758 878.661,428.879 879.558,437.062 880.454,445.306 
  881.351,453.608 882.247,461.968 883.144,470.383 884.041,478.852 884.937,487.373 885.834,495.944 886.73,504.564 887.627,513.23 888.523,521.942 889.42,530.697 
  890.317,539.494 891.213,548.33 892.11,557.204 893.006,566.114 893.903,575.059 894.799,584.036 895.696,593.044 896.593,602.081 897.489,611.144 898.386,620.233 
  899.282,629.345 900.179,638.479 901.075,647.632 901.972,656.803 902.869,665.991 903.765,675.192 904.662,684.405 905.558,693.628 906.455,702.86 907.351,712.099 
  908.248,721.342 909.145,730.588 910.041,739.835 910.938,749.082 911.834,758.325 912.731,767.563 913.627,776.795 914.524,786.019 915.421,795.232 916.317,804.433 
  917.214,813.62 918.11,822.792 919.007,831.945 919.903,841.079 920.8,850.191 921.697,859.28 922.593,868.343 923.49,877.38 924.386,886.388 925.283,895.365 
  926.179,904.31 927.076,913.22 927.972,922.094 928.869,930.93 929.766,939.727 930.662,948.482 931.559,957.193 932.455,965.86 933.352,974.48 934.248,983.051 
  935.145,991.572 936.042,1000.04 936.938,1008.46 937.835,1016.82 938.731,1025.12 939.628,1033.36 940.524,1041.54 941.421,1049.67 942.318,1057.72 943.214,1065.71 
  944.111,1073.64 945.007,1081.5 945.904,1089.28 946.8,1096.99 947.697,1104.63 948.594,1112.2 949.49,1119.69 950.387,1127.1 951.283,1134.43 952.18,1141.68 
  953.076,1148.85 953.973,1155.93 954.87,1162.93 955.766,1169.84 956.663,1176.66 957.559,1183.4 958.456,1190.04 959.352,1196.59 960.249,1203.05 961.146,1209.41 
  962.042,1215.67 962.939,1221.84 963.835,1227.91 964.732,1233.88 965.628,1239.75 966.525,1245.51 967.422,1251.18 968.318,1256.73 969.215,1262.18 970.111,1267.53 
  971.008,1272.76 971.904,1277.89 972.801,1282.91 973.698,1287.81 974.594,1292.61 975.491,1297.29 976.387,1301.86 977.284,1306.31 978.18,1310.64 979.077,1314.86 
  979.974,1318.96 980.87,1322.94 981.767,1326.81 982.663,1330.55 983.56,1334.17 984.456,1337.67 985.353,1341.05 986.25,1344.31 987.146,1347.44 988.043,1350.45 
  988.939,1353.33 989.836,1356.09 990.732,1358.72 991.629,1361.22 992.525,1363.6 993.422,1365.85 994.319,1367.97 995.215,1369.96 996.112,1371.83 997.008,1373.56 
  997.905,1375.17 998.801,1376.64 999.698,1377.99 1000.59,1379.21 1001.49,1380.29 1002.39,1381.24 1003.28,1382.07 1004.18,1382.76 1005.08,1383.32 1005.97,1383.74 
  1006.87,1384.04 1007.77,1384.21 1008.66,1384.24 1009.56,1384.14 1010.46,1383.91 1011.35,1383.55 1012.25,1383.05 1013.15,1382.43 1014.04,1381.67 1014.94,1380.78 
  1015.84,1379.76 1016.73,1378.61 1017.63,1377.33 1018.53,1375.92 1019.42,1374.38 1020.32,1372.71 1021.22,1370.91 1022.11,1368.98 1023.01,1366.92 1023.91,1364.74 
  1024.8,1362.43 1025.7,1359.98 1026.6,1357.42 1027.49,1354.72 1028.39,1351.9 1029.28,1348.96 1030.18,1345.89 1031.08,1342.69 1031.97,1339.38 1032.87,1335.94 
  1033.77,1332.38 1034.66,1328.69 1035.56,1324.89 1036.46,1320.97 1037.35,1316.93 1038.25,1312.77 1039.15,1308.49 1040.04,1304.1 1040.94,1299.59 1041.84,1294.96 
  1042.73,1290.23 1043.63,1285.38 1044.53,1280.41 1045.42,1275.34 1046.32,1270.16 1047.22,1264.87 1048.11,1259.47 1049.01,1253.97 1049.91,1248.36 1050.8,1242.64 
  1051.7,1236.83 1052.6,1230.91 1053.49,1224.89 1054.39,1218.77 1055.29,1212.55 1056.18,1206.24 1057.08,1199.83 1057.98,1193.33 1058.87,1186.73 1059.77,1180.04 
  1060.66,1173.26 1061.56,1166.4 1062.46,1159.44 1063.35,1152.4 1064.25,1145.27 1065.15,1138.07 1066.04,1130.78 1066.94,1123.4 1067.84,1115.95 1068.73,1108.43 
  1069.63,1100.82 1070.53,1093.15 1071.42,1085.4 1072.32,1077.58 1073.22,1069.69 1074.11,1061.73 1075.01,1053.7 1075.91,1045.61 1076.8,1037.46 1077.7,1029.25 
  1078.6,1020.97 1079.49,1012.64 1080.39,1004.26 1081.29,995.813 1082.18,987.318 1083.08,978.772 1083.98,970.176 1084.87,961.532 1085.77,952.843 1086.67,944.11 
  1087.56,935.334 1088.46,926.517 1089.36,917.662 1090.25,908.769 1091.15,899.842 1092.04,890.88 1092.94,881.888 1093.84,872.865 1094.73,863.815 1095.63,854.738 
  1096.53,845.638 1097.42,836.514 1098.32,827.371 1099.22,818.208 1100.11,809.029 1101.01,799.835 1101.91,790.627 1102.8,781.408 1103.7,772.18 1104.6,762.945 
  1105.49,753.704 1106.39,744.459 1107.29,735.212 1108.18,725.965 1109.08,716.72 1109.98,707.479 1110.87,698.244 1111.77,689.015 1112.67,679.797 1113.56,670.589 
  1114.46,661.395 1115.36,652.216 1116.25,643.053 1117.15,633.91 1118.05,624.786 1118.94,615.686 1119.84,606.609 1120.73,597.559 1121.63,588.536 1122.53,579.544 
  1123.42,570.582 1124.32,561.655 1125.22,552.762 1126.11,543.907 1127.01,535.09 1127.91,526.314 1128.8,517.581 1129.7,508.891 1130.6,500.248 1131.49,491.652 
  1132.39,483.106 1133.29,474.611 1134.18,466.169 1135.08,457.781 1135.98,449.45 1136.87,441.176 1137.77,432.963 1138.67,424.811 1139.56,416.721 1140.46,408.697 
  1141.36,400.738 1142.25,392.848 1143.15,385.027 1144.05,377.277 1144.94,369.6 1145.84,361.997 1146.74,354.47 1147.63,347.02 1148.53,339.649 1149.43,332.358 
  1150.32,325.149 1151.22,318.023 1152.11,310.982 1153.01,304.027 1153.91,297.16 1154.8,290.381 1155.7,283.693 1156.6,277.096 1157.49,270.593 1158.39,264.183 
  1159.29,257.87 1160.18,251.653 1161.08,245.534 1161.98,239.515 1162.87,233.596 1163.77,227.78 1164.67,222.066 1165.56,216.456 1166.46,210.952 1167.36,205.554 
  1168.25,200.264 1169.15,195.082 1170.05,190.01 1170.94,185.048 1171.84,180.198 1172.74,175.461 1173.63,170.838 1174.53,166.329 1175.43,161.935 1176.32,157.658 
  1177.22,153.498 1178.12,149.456 1179.01,145.534 1179.91,141.73 1180.81,138.048 1181.7,134.486 1182.6,131.047 1183.49,127.73 1184.39,124.536 1185.29,121.466 
  1186.18,118.521 1187.08,115.701 1187.98,113.007 1188.87,110.44 1189.77,107.999 1190.67,105.685 1191.56,103.499 1192.46,101.441 1193.36,99.5123 1194.25,97.7123 
  1195.15,96.0418 1196.05,94.501 1196.94,93.0902 1197.84,91.8098 1198.74,90.66 1199.63,89.641 1200.53,88.7531 1201.43,87.9964 1202.32,87.3711 1203.22,86.8772 
  1204.12,86.515 1205.01,86.2845 1205.91,86.1857 1206.81,86.2186 1207.7,86.3833 1208.6,86.6797 1209.5,87.1077 1210.39,87.6673 1211.29,88.3583 1212.19,89.1807 
  1213.08,90.1341 1213.98,91.2185 1214.87,92.4337 1215.77,93.7793 1216.67,95.2551 1217.56,96.8609 1218.46,98.5962 1219.36,100.461 1220.25,102.454 1221.15,104.576 
  1222.05,106.826 1222.94,109.203 1223.84,111.708 1224.74,114.339 1225.63,117.096 1226.53,119.978 1227.43,122.986 1228.32,126.117 1229.22,129.373 1230.12,132.751 
  1231.01,136.252 1231.91,139.874 1232.81,143.617 1233.7,147.48 1234.6,151.463 1235.5,155.563 1236.39,159.782 1237.29,164.117 1238.19,168.569 1239.08,173.135 
  1239.98,177.816 1240.88,182.609 1241.77,187.515 1242.67,192.532 1243.56,197.659 1244.46,202.895 1245.36,208.24 1246.25,213.691 1247.15,219.248 1248.05,224.91 
  1248.94,230.675 1249.84,236.543 1250.74,242.512 1251.63,248.581 1252.53,254.749 1253.43,261.014 1254.32,267.376 1255.22,273.833 1256.12,280.383 1257.01,287.026 
  1257.91,293.759 1258.81,300.582 1259.7,307.494 1260.6,314.492 1261.5,321.576 1262.39,328.743 1263.29,335.993 1264.19,343.325 1265.08,350.735 1265.98,358.224 
  1266.88,365.789 1267.77,373.43 1268.67,381.143 1269.57,388.929 1270.46,396.785 1271.36,404.709 1272.26,412.701 1273.15,420.758 1274.05,428.879 1274.94,437.062 
  1275.84,445.306 1276.74,453.608 1277.63,461.968 1278.53,470.383 1279.43,478.852 1280.32,487.373 1281.22,495.944 1282.12,504.564 1283.01,513.23 1283.91,521.942 
  1284.81,530.697 1285.7,539.494 1286.6,548.33 1287.5,557.204 1288.39,566.114 1289.29,575.059 1290.19,584.036 1291.08,593.044 1291.98,602.081 1292.88,611.144 
  1293.77,620.233 1294.67,629.345 1295.57,638.479 1296.46,647.632 1297.36,656.803 1298.26,665.991 1299.15,675.192 1300.05,684.405 1300.95,693.628 1301.84,702.86 
  1302.74,712.099 1303.64,721.342 1304.53,730.588 1305.43,739.835 1306.32,749.082 1307.22,758.325 1308.12,767.563 1309.01,776.795 1309.91,786.019 1310.81,795.232 
  1311.7,804.433 1312.6,813.62 1313.5,822.792 1314.39,831.945 1315.29,841.079 1316.19,850.191 1317.08,859.28 1317.98,868.343 1318.88,877.38 1319.77,886.388 
  1320.67,895.365 1321.57,904.31 1322.46,913.22 1323.36,922.094 1324.26,930.93 1325.15,939.727 1326.05,948.482 1326.95,957.193 1327.84,965.86 1328.74,974.48 
  1329.64,983.051 1330.53,991.572 1331.43,1000.04 1332.33,1008.46 1333.22,1016.82 1334.12,1025.12 1335.02,1033.36 1335.91,1041.54 1336.81,1049.67 1337.7,1057.72 
  1338.6,1065.71 1339.5,1073.64 1340.39,1081.5 1341.29,1089.28 1342.19,1096.99 1343.08,1104.63 1343.98,1112.2 1344.88,1119.69 1345.77,1127.1 1346.67,1134.43 
  1347.57,1141.68 1348.46,1148.85 1349.36,1155.93 1350.26,1162.93 1351.15,1169.84 1352.05,1176.66 1352.95,1183.4 1353.84,1190.04 1354.74,1196.59 1355.64,1203.05 
  1356.53,1209.41 1357.43,1215.67 1358.33,1221.84 1359.22,1227.91 1360.12,1233.88 1361.02,1239.75 1361.91,1245.51 1362.81,1251.18 1363.71,1256.73 1364.6,1262.18 
  1365.5,1267.53 1366.39,1272.76 1367.29,1277.89 1368.19,1282.91 1369.08,1287.81 1369.98,1292.61 1370.88,1297.29 1371.77,1301.86 1372.67,1306.31 1373.57,1310.64 
  1374.46,1314.86 1375.36,1318.96 1376.26,1322.94 1377.15,1326.81 1378.05,1330.55 1378.95,1334.17 1379.84,1337.67 1380.74,1341.05 1381.64,1344.31 1382.53,1347.44 
  1383.43,1350.45 1384.33,1353.33 1385.22,1356.09 1386.12,1358.72 1387.02,1361.22 1387.91,1363.6 1388.81,1365.85 1389.71,1367.97 1390.6,1369.96 1391.5,1371.83 
  1392.4,1373.56 1393.29,1375.17 1394.19,1376.64 1395.09,1377.99 1395.98,1379.21 1396.88,1380.29 1397.77,1381.24 1398.67,1382.07 1399.57,1382.76 1400.46,1383.32 
  1401.36,1383.74 1402.26,1384.04 1403.15,1384.21 1404.05,1384.24 1404.95,1384.14 1405.84,1383.91 1406.74,1383.55 1407.64,1383.05 1408.53,1382.43 1409.43,1381.67 
  1410.33,1380.78 1411.22,1379.76 1412.12,1378.61 1413.02,1377.33 1413.91,1375.92 1414.81,1374.38 1415.71,1372.71 1416.6,1370.91 1417.5,1368.98 1418.4,1366.92 
  1419.29,1364.74 1420.19,1362.43 1421.09,1359.98 1421.98,1357.42 1422.88,1354.72 1423.78,1351.9 1424.67,1348.96 1425.57,1345.89 1426.47,1342.69 1427.36,1339.38 
  1428.26,1335.94 1429.15,1332.38 1430.05,1328.69 1430.95,1324.89 1431.84,1320.97 1432.74,1316.93 1433.64,1312.77 1434.53,1308.49 1435.43,1304.1 1436.33,1299.59 
  1437.22,1294.96 1438.12,1290.23 1439.02,1285.38 1439.91,1280.41 1440.81,1275.34 1441.71,1270.16 1442.6,1264.87 1443.5,1259.47 1444.4,1253.97 1445.29,1248.36 
  1446.19,1242.64 1447.09,1236.83 1447.98,1230.91 1448.88,1224.89 1449.78,1218.77 1450.67,1212.55 1451.57,1206.24 1452.47,1199.83 1453.36,1193.33 1454.26,1186.73 
  1455.16,1180.04 1456.05,1173.26 1456.95,1166.4 1457.85,1159.44 1458.74,1152.4 1459.64,1145.27 1460.53,1138.07 1461.43,1130.78 1462.33,1123.4 1463.22,1115.95 
  1464.12,1108.43 1465.02,1100.82 1465.91,1093.15 1466.81,1085.4 1467.71,1077.58 1468.6,1069.69 1469.5,1061.73 1470.4,1053.7 1471.29,1045.61 1472.19,1037.46 
  1473.09,1029.25 1473.98,1020.97 1474.88,1012.64 1475.78,1004.26 1476.67,995.813 1477.57,987.318 1478.47,978.772 1479.36,970.176 1480.26,961.532 1481.16,952.843 
  1482.05,944.11 1482.95,935.334 1483.85,926.517 1484.74,917.662 1485.64,908.769 1486.54,899.842 1487.43,890.88 1488.33,881.888 1489.22,872.865 1490.12,863.815 
  1491.02,854.738 1491.91,845.638 1492.81,836.514 1493.71,827.371 1494.6,818.208 1495.5,809.029 1496.4,799.835 1497.29,790.627 1498.19,781.408 1499.09,772.18 
  1499.98,762.945 1500.88,753.704 1501.78,744.459 1502.67,735.212 1503.57,725.965 1504.47,716.72 1505.36,707.479 1506.26,698.244 1507.16,689.015 1508.05,679.797 
  1508.95,670.589 1509.85,661.395 1510.74,652.216 1511.64,643.053 1512.54,633.91 1513.43,624.786 1514.33,615.686 1515.23,606.609 1516.12,597.559 1517.02,588.536 
  1517.92,579.544 1518.81,570.582 1519.71,561.655 1520.6,552.762 1521.5,543.907 1522.4,535.09 1523.29,526.314 1524.19,517.581 1525.09,508.891 1525.98,500.248 
  1526.88,491.652 1527.78,483.106 1528.67,474.611 1529.57,466.169 1530.47,457.781 1531.36,449.45 1532.26,441.176 1533.16,432.963 1534.05,424.811 1534.95,416.721 
  1535.85,408.697 1536.74,400.738 1537.64,392.848 1538.54,385.027 1539.43,377.277 1540.33,369.6 1541.23,361.997 1542.12,354.47 1543.02,347.02 1543.92,339.649 
  1544.81,332.358 1545.71,325.149 1546.61,318.023 1547.5,310.982 1548.4,304.027 1549.3,297.16 1550.19,290.381 1551.09,283.693 1551.98,277.096 1552.88,270.593 
  1553.78,264.183 1554.67,257.87 1555.57,251.653 1556.47,245.534 1557.36,239.515 1558.26,233.596 1559.16,227.78 1560.05,222.066 1560.95,216.456 1561.85,210.952 
  1562.74,205.554 1563.64,200.264 1564.54,195.082 1565.43,190.01 1566.33,185.048 1567.23,180.198 1568.12,175.461 1569.02,170.838 1569.92,166.329 1570.81,161.935 
  1571.71,157.658 1572.61,153.498 1573.5,149.456 1574.4,145.534 1575.3,141.73 1576.19,138.048 1577.09,134.486 1577.99,131.047 1578.88,127.73 1579.78,124.536 
  1580.68,121.466 1581.57,118.521 1582.47,115.701 1583.36,113.007 1584.26,110.44 1585.16,107.999 1586.05,105.685 1586.95,103.499 1587.85,101.441 1588.74,99.5123 
  1589.64,97.7123 1590.54,96.0418 1591.43,94.501 1592.33,93.0902 1593.23,91.8098 1594.12,90.66 1595.02,89.641 1595.92,88.7531 1596.81,87.9964 1597.71,87.3711 
  1598.61,86.8772 1599.5,86.515 1600.4,86.2845 1601.3,86.1857 1602.19,86.2186 1603.09,86.3833 1603.99,86.6797 1604.88,87.1077 1605.78,87.6673 1606.68,88.3583 
  1607.57,89.1807 1608.47,90.1341 1609.37,91.2185 1610.26,92.4337 1611.16,93.7793 1612.06,95.2551 1612.95,96.8609 1613.85,98.5962 1614.74,100.461 1615.64,102.454 
  1616.54,104.576 1617.43,106.826 1618.33,109.203 1619.23,111.708 1620.12,114.339 1621.02,117.096 1621.92,119.978 1622.81,122.986 1623.71,126.117 1624.61,129.373 
  1625.5,132.751 1626.4,136.252 1627.3,139.874 1628.19,143.617 1629.09,147.48 1629.99,151.463 1630.88,155.563 1631.78,159.782 1632.68,164.117 1633.57,168.569 
  1634.47,173.135 1635.37,177.816 1636.26,182.609 1637.16,187.515 1638.06,192.532 1638.95,197.659 1639.85,202.895 1640.75,208.24 1641.64,213.691 1642.54,219.248 
  1643.43,224.91 1644.33,230.675 1645.23,236.543 1646.12,242.512 1647.02,248.581 1647.92,254.749 1648.81,261.014 1649.71,267.376 1650.61,273.833 1651.5,280.383 
  1652.4,287.026 1653.3,293.759 1654.19,300.582 1655.09,307.494 1655.99,314.492 1656.88,321.576 1657.78,328.743 1658.68,335.993 1659.57,343.325 1660.47,350.735 
  1661.37,358.224 1662.26,365.789 1663.16,373.43 1664.06,381.143 1664.95,388.929 1665.85,396.785 1666.75,404.709 1667.64,412.701 1668.54,420.758 1669.44,428.879 
  1670.33,437.062 1671.23,445.306 1672.13,453.608 1673.02,461.968 1673.92,470.383 1674.81,478.852 1675.71,487.373 1676.61,495.944 1677.5,504.564 1678.4,513.23 
  1679.3,521.942 1680.19,530.697 1681.09,539.494 1681.99,548.33 1682.88,557.204 1683.78,566.114 1684.68,575.059 1685.57,584.036 1686.47,593.044 1687.37,602.081 
  1688.26,611.144 1689.16,620.233 1690.06,629.345 1690.95,638.479 1691.85,647.632 1692.75,656.803 1693.64,665.991 1694.54,675.192 1695.44,684.405 1696.33,693.628 
  1697.23,702.86 1698.13,712.099 1699.02,721.342 1699.92,730.588 1700.82,739.835 1701.71,749.082 1702.61,758.325 1703.51,767.563 1704.4,776.795 1705.3,786.019 
  1706.19,795.232 1707.09,804.433 1707.99,813.62 1708.88,822.792 1709.78,831.945 1710.68,841.079 1711.57,850.191 1712.47,859.28 1713.37,868.343 1714.26,877.38 
  1715.16,886.388 1716.06,895.365 1716.95,904.31 1717.85,913.22 1718.75,922.094 1719.64,930.93 1720.54,939.727 1721.44,948.482 1722.33,957.193 1723.23,965.86 
  1724.13,974.48 1725.02,983.051 1725.92,991.572 1726.82,1000.04 1727.71,1008.46 1728.61,1016.82 1729.51,1025.12 1730.4,1033.36 1731.3,1041.54 1732.2,1049.67 
  1733.09,1057.72 1733.99,1065.71 1734.89,1073.64 1735.78,1081.5 1736.68,1089.28 1737.57,1096.99 1738.47,1104.63 1739.37,1112.2 1740.26,1119.69 1741.16,1127.1 
  1742.06,1134.43 1742.95,1141.68 1743.85,1148.85 1744.75,1155.93 1745.64,1162.93 1746.54,1169.84 1747.44,1176.66 1748.33,1183.4 1749.23,1190.04 1750.13,1196.59 
  1751.02,1203.05 1751.92,1209.41 1752.82,1215.67 1753.71,1221.84 1754.61,1227.91 1755.51,1233.88 1756.4,1239.75 1757.3,1245.51 1758.2,1251.18 1759.09,1256.73 
  1759.99,1262.18 1760.89,1267.53 1761.78,1272.76 1762.68,1277.89 1763.58,1282.91 1764.47,1287.81 1765.37,1292.61 1766.26,1297.29 1767.16,1301.86 1768.06,1306.31 
  1768.95,1310.64 1769.85,1314.86 1770.75,1318.96 1771.64,1322.94 1772.54,1326.81 1773.44,1330.55 1774.33,1334.17 1775.23,1337.67 1776.13,1341.05 1777.02,1344.31 
  1777.92,1347.44 1778.82,1350.45 1779.71,1353.33 1780.61,1356.09 1781.51,1358.72 1782.4,1361.22 1783.3,1363.6 1784.2,1365.85 1785.09,1367.97 1785.99,1369.96 
  1786.89,1371.83 1787.78,1373.56 1788.68,1375.17 1789.58,1376.64 1790.47,1377.99 1791.37,1379.21 1792.27,1380.29 1793.16,1381.24 1794.06,1382.07 1794.96,1382.76 
  1795.85,1383.32 1796.75,1383.74 1797.64,1384.04 1798.54,1384.21 1799.44,1384.24 1800.33,1384.14 1801.23,1383.91 1802.13,1383.55 1803.02,1383.05 1803.92,1382.43 
  1804.82,1381.67 1805.71,1380.78 1806.61,1379.76 1807.51,1378.61 1808.4,1377.33 1809.3,1375.92 1810.2,1374.38 1811.09,1372.71 1811.99,1370.91 1812.89,1368.98 
  1813.78,1366.92 1814.68,1364.74 1815.58,1362.43 1816.47,1359.98 1817.37,1357.42 1818.27,1354.72 1819.16,1351.9 1820.06,1348.96 1820.96,1345.89 1821.85,1342.69 
  1822.75,1339.38 1823.65,1335.94 1824.54,1332.38 1825.44,1328.69 1826.34,1324.89 1827.23,1320.97 1828.13,1316.93 1829.02,1312.77 1829.92,1308.49 1830.82,1304.1 
  1831.71,1299.59 1832.61,1294.96 1833.51,1290.23 1834.4,1285.38 1835.3,1280.41 1836.2,1275.34 1837.09,1270.16 1837.99,1264.87 1838.89,1259.47 1839.78,1253.97 
  1840.68,1248.36 1841.58,1242.64 1842.47,1236.83 1843.37,1230.91 1844.27,1224.89 1845.16,1218.77 1846.06,1212.55 1846.96,1206.24 1847.85,1199.83 1848.75,1193.33 
  1849.65,1186.73 1850.54,1180.04 1851.44,1173.26 1852.34,1166.4 1853.23,1159.44 1854.13,1152.4 1855.03,1145.27 1855.92,1138.07 1856.82,1130.78 1857.72,1123.4 
  1858.61,1115.95 1859.51,1108.43 1860.4,1100.82 1861.3,1093.15 1862.2,1085.4 1863.09,1077.58 1863.99,1069.69 1864.89,1061.73 1865.78,1053.7 1866.68,1045.61 
  1867.58,1037.46 1868.47,1029.25 1869.37,1020.97 1870.27,1012.64 1871.16,1004.26 1872.06,995.813 1872.96,987.318 1873.85,978.772 1874.75,970.176 1875.65,961.532 
  1876.54,952.843 1877.44,944.11 1878.34,935.334 1879.23,926.517 1880.13,917.662 1881.03,908.769 1881.92,899.842 1882.82,890.88 1883.72,881.888 1884.61,872.865 
  1885.51,863.815 1886.41,854.738 1887.3,845.638 1888.2,836.514 1889.09,827.371 1889.99,818.208 1890.89,809.029 1891.78,799.835 1892.68,790.627 1893.58,781.408 
  1894.47,772.18 1895.37,762.945 1896.27,753.704 1897.16,744.459 1898.06,735.212 1898.96,725.965 1899.85,716.72 1900.75,707.479 1901.65,698.244 1902.54,689.015 
  1903.44,679.797 1904.34,670.589 1905.23,661.395 1906.13,652.216 1907.03,643.053 1907.92,633.91 1908.82,624.786 1909.72,615.686 1910.61,606.609 1911.51,597.559 
  1912.41,588.536 1913.3,579.544 1914.2,570.582 1915.1,561.655 1915.99,552.762 1916.89,543.907 1917.79,535.09 1918.68,526.314 1919.58,517.581 1920.47,508.891 
  1921.37,500.248 1922.27,491.652 1923.16,483.106 1924.06,474.611 1924.96,466.169 1925.85,457.781 1926.75,449.45 1927.65,441.176 1928.54,432.963 1929.44,424.811 
  1930.34,416.721 1931.23,408.697 1932.13,400.738 1933.03,392.848 1933.92,385.027 1934.82,377.277 1935.72,369.6 1936.61,361.997 1937.51,354.47 1938.41,347.02 
  1939.3,339.649 1940.2,332.358 1941.1,325.149 1941.99,318.023 1942.89,310.982 1943.79,304.027 1944.68,297.16 1945.58,290.381 1946.48,283.693 1947.37,277.096 
  1948.27,270.593 1949.17,264.183 1950.06,257.87 1950.96,251.653 1951.85,245.534 1952.75,239.515 1953.65,233.596 1954.54,227.78 1955.44,222.066 1956.34,216.456 
  1957.23,210.952 1958.13,205.554 1959.03,200.264 1959.92,195.082 1960.82,190.01 1961.72,185.048 1962.61,180.198 1963.51,175.461 1964.41,170.838 1965.3,166.329 
  1966.2,161.935 1967.1,157.658 1967.99,153.498 1968.89,149.456 1969.79,145.534 1970.68,141.73 1971.58,138.048 1972.48,134.486 1973.37,131.047 1974.27,127.73 
  1975.17,124.536 1976.06,121.466 1976.96,118.521 1977.86,115.701 1978.75,113.007 1979.65,110.44 1980.55,107.999 1981.44,105.685 1982.34,103.499 1983.23,101.441 
  1984.13,99.5123 1985.03,97.7123 1985.92,96.0418 1986.82,94.501 1987.72,93.0902 1988.61,91.8098 1989.51,90.66 1990.41,89.641 1991.3,88.7531 1992.2,87.9964 
  1993.1,87.3711 1993.99,86.8772 1994.89,86.515 1995.79,86.2845 1996.68,86.1857 1997.58,86.2186 1998.48,86.3833 1999.37,86.6797 2000.27,87.1077 2001.17,87.6673 
  2002.06,88.3583 2002.96,89.1807 2003.86,90.1341 2004.75,91.2185 2005.65,92.4337 2006.55,93.7793 2007.44,95.2551 2008.34,96.8609 2009.24,98.5962 2010.13,100.461 
  2011.03,102.454 2011.93,104.576 2012.82,106.826 2013.72,109.203 2014.61,111.708 2015.51,114.339 2016.41,117.096 2017.3,119.978 2018.2,122.986 2019.1,126.117 
  2019.99,129.373 2020.89,132.751 2021.79,136.252 2022.68,139.874 2023.58,143.617 2024.48,147.48 2025.37,151.463 2026.27,155.563 2027.17,159.782 2028.06,164.117 
  2028.96,168.569 2029.86,173.135 2030.75,177.816 2031.65,182.609 2032.55,187.515 2033.44,192.532 2034.34,197.659 2035.24,202.895 2036.13,208.24 2037.03,213.691 
  2037.93,219.248 2038.82,224.91 2039.72,230.675 2040.62,236.543 2041.51,242.512 2042.41,248.581 2043.3,254.749 2044.2,261.014 2045.1,267.376 2045.99,273.833 
  2046.89,280.383 2047.79,287.026 2048.68,293.759 2049.58,300.582 2050.48,307.494 2051.37,314.492 2052.27,321.576 2053.17,328.743 2054.06,335.993 2054.96,343.325 
  2055.86,350.735 2056.75,358.224 2057.65,365.789 2058.55,373.43 2059.44,381.143 2060.34,388.929 2061.24,396.785 2062.13,404.709 2063.03,412.701 2063.93,420.758 
  2064.82,428.879 2065.72,437.062 2066.62,445.306 2067.51,453.608 2068.41,461.968 2069.31,470.383 2070.2,478.852 2071.1,487.373 2072,495.944 2072.89,504.564 
  2073.79,513.23 2074.68,521.942 2075.58,530.697 2076.48,539.494 2077.37,548.33 2078.27,557.204 2079.17,566.114 2080.06,575.059 2080.96,584.036 2081.86,593.044 
  2082.75,602.081 2083.65,611.144 2084.55,620.233 2085.44,629.345 2086.34,638.479 2087.24,647.632 2088.13,656.803 2089.03,665.991 2089.93,675.192 2090.82,684.405 
  2091.72,693.628 2092.62,702.86 2093.51,712.099 2094.41,721.342 2095.31,730.588 2096.2,739.835 2097.1,749.082 2098,758.325 2098.89,767.563 2099.79,776.795 
  2100.69,786.019 2101.58,795.232 2102.48,804.433 2103.38,813.62 2104.27,822.792 2105.17,831.945 2106.06,841.079 2106.96,850.191 2107.86,859.28 2108.75,868.343 
  2109.65,877.38 2110.55,886.388 2111.44,895.365 2112.34,904.31 2113.24,913.22 2114.13,922.094 2115.03,930.93 2115.93,939.727 2116.82,948.482 2117.72,957.193 
  2118.62,965.86 2119.51,974.48 2120.41,983.051 2121.31,991.572 2122.2,1000.04 2123.1,1008.46 2124,1016.82 2124.89,1025.12 2125.79,1033.36 2126.69,1041.54 
  2127.58,1049.67 2128.48,1057.72 2129.38,1065.71 2130.27,1073.64 2131.17,1081.5 2132.07,1089.28 2132.96,1096.99 2133.86,1104.63 2134.76,1112.2 2135.65,1119.69 
  2136.55,1127.1 2137.44,1134.43 2138.34,1141.68 2139.24,1148.85 2140.13,1155.93 2141.03,1162.93 2141.93,1169.84 2142.82,1176.66 2143.72,1183.4 2144.62,1190.04 
  2145.51,1196.59 2146.41,1203.05 2147.31,1209.41 2148.2,1215.67 2149.1,1221.84 2150,1227.91 2150.89,1233.88 2151.79,1239.75 2152.69,1245.51 2153.58,1251.18 
  2154.48,1256.73 2155.38,1262.18 2156.27,1267.53 2157.17,1272.76 2158.07,1277.89 2158.96,1282.91 2159.86,1287.81 2160.76,1292.61 2161.65,1297.29 2162.55,1301.86 
  2163.45,1306.31 2164.34,1310.64 2165.24,1314.86 2166.13,1318.96 2167.03,1322.94 2167.93,1326.81 2168.82,1330.55 2169.72,1334.17 2170.62,1337.67 2171.51,1341.05 
  2172.41,1344.31 2173.31,1347.44 2174.2,1350.45 2175.1,1353.33 2176,1356.09 2176.89,1358.72 2177.79,1361.22 2178.69,1363.6 2179.58,1365.85 2180.48,1367.97 
  2181.38,1369.96 2182.27,1371.83 2183.17,1373.56 2184.07,1375.17 2184.96,1376.64 2185.86,1377.99 2186.76,1379.21 2187.65,1380.29 2188.55,1381.24 2189.45,1382.07 
  2190.34,1382.76 2191.24,1383.32 2192.14,1383.74 2193.03,1384.04 2193.93,1384.21 2194.83,1384.24 2195.72,1384.14 2196.62,1383.91 2197.51,1383.55 2198.41,1383.05 
  2199.31,1382.43 2200.2,1381.67 2201.1,1380.78 2202,1379.76 2202.89,1378.61 2203.79,1377.33 2204.69,1375.92 2205.58,1374.38 2206.48,1372.71 2207.38,1370.91 
  2208.27,1368.98 2209.17,1366.92 2210.07,1364.74 2210.96,1362.43 2211.86,1359.98 2212.76,1357.42 2213.65,1354.72 2214.55,1351.9 2215.45,1348.96 2216.34,1345.89 
  2217.24,1342.69 2218.14,1339.38 2219.03,1335.94 2219.93,1332.38 2220.83,1328.69 2221.72,1324.89 2222.62,1320.97 2223.52,1316.93 2224.41,1312.77 2225.31,1308.49 
  2226.21,1304.1 2227.1,1299.59 2228,1294.96 2228.89,1290.23 2229.79,1285.38 2230.69,1280.41 2231.58,1275.34 2232.48,1270.16 2233.38,1264.87 2234.27,1259.47 
  2235.17,1253.97 2236.07,1248.36 2236.96,1242.64 2237.86,1236.83 2238.76,1230.91 2239.65,1224.89 2240.55,1218.77 2241.45,1212.55 2242.34,1206.24 2243.24,1199.83 
  2244.14,1193.33 2245.03,1186.73 2245.93,1180.04 2246.83,1173.26 2247.72,1166.4 2248.62,1159.44 2249.52,1152.4 2250.41,1145.27 2251.31,1138.07 2252.21,1130.78 
  2253.1,1123.4 2254,1115.95 2254.9,1108.43 2255.79,1100.82 2256.69,1093.15 2257.59,1085.4 2258.48,1077.58 2259.38,1069.69 2260.27,1061.73 2261.17,1053.7 
  2262.07,1045.61 2262.96,1037.46 2263.86,1029.25 2264.76,1020.97 2265.65,1012.64 2266.55,1004.26 2267.45,995.813 2268.34,987.318 2269.24,978.772 2270.14,970.176 
  2271.03,961.532 2271.93,952.843 2272.83,944.11 2273.72,935.334 2274.62,926.517 2275.52,917.662 2276.41,908.769 2277.31,899.842 2278.21,890.88 2279.1,881.888 
  2280,872.865 2280.9,863.815 2281.79,854.738 2282.69,845.638 2283.59,836.514 2284.48,827.371 2285.38,818.208 2286.28,809.029 2287.17,799.835 2288.07,790.627 
  2288.96,781.408 2289.86,772.18 2290.76,762.945 2291.65,753.704 2292.55,744.459 2293.45,735.212 
  "/>
<path clip-path="url(#clip850)" d="
M1399.65 214.069 L2282.9 214.069 L2282.9 93.1086 L1399.65 93.1086  Z
  " fill="#ffffff" fill-rule="evenodd" fill-opacity="1"/>
<polyline clip-path="url(#clip850)" style="stroke:#000000; stroke-width:4; stroke-opacity:1; fill:none" points="
  1399.65,214.069 2282.9,214.069 2282.9,93.1086 1399.65,93.1086 1399.65,214.069 
  "/>
<polyline clip-path="url(#clip850)" style="stroke:#009af9; stroke-width:4; stroke-opacity:1; fill:none" points="
  1422.94,153.589 1562.64,153.589 
  "/>
<path clip-path="url(#clip850)" d="M 0 0 M1604.35 145.707 L1604.35 149.734 Q1602.54 148.809 1600.6 148.346 Q1598.65 147.883 1596.57 147.883 Q1593.4 147.883 1591.8 148.855 Q1590.23 149.827 1590.23 151.771 Q1590.23 153.253 1591.36 154.109 Q1592.5 154.943 1595.92 155.707 L1597.38 156.031 Q1601.92 157.003 1603.82 158.785 Q1605.74 160.545 1605.74 163.716 Q1605.74 167.327 1602.87 169.433 Q1600.02 171.54 1595.02 171.54 Q1592.94 171.54 1590.67 171.123 Q1588.42 170.73 1585.92 169.92 L1585.92 165.521 Q1588.28 166.748 1590.58 167.373 Q1592.87 167.975 1595.11 167.975 Q1598.12 167.975 1599.74 166.957 Q1601.36 165.915 1601.36 164.04 Q1601.36 162.304 1600.18 161.378 Q1599.02 160.452 1595.07 159.596 L1593.59 159.248 Q1589.63 158.415 1587.87 156.702 Q1586.11 154.966 1586.11 151.957 Q1586.11 148.299 1588.7 146.309 Q1591.29 144.318 1596.06 144.318 Q1598.42 144.318 1600.51 144.665 Q1602.59 145.012 1604.35 145.707 Z" fill="#000000" fill-rule="evenodd" fill-opacity="1" /><path clip-path="url(#clip850)" d="M 0 0 M1612.52 144.943 L1616.78 144.943 L1616.78 170.869 L1612.52 170.869 L1612.52 144.943 M1612.52 134.85 L1616.78 134.85 L1616.78 140.244 L1612.52 140.244 L1612.52 134.85 Z" fill="#000000" fill-rule="evenodd" fill-opacity="1" /><path clip-path="url(#clip850)" d="M 0 0 M1647.24 155.221 L1647.24 170.869 L1642.98 170.869 L1642.98 155.359 Q1642.98 151.679 1641.55 149.85 Q1640.11 148.022 1637.24 148.022 Q1633.79 148.022 1631.8 150.221 Q1629.81 152.42 1629.81 156.216 L1629.81 170.869 L1625.53 170.869 L1625.53 144.943 L1629.81 144.943 L1629.81 148.971 Q1631.34 146.633 1633.4 145.475 Q1635.48 144.318 1638.19 144.318 Q1642.66 144.318 1644.95 147.096 Q1647.24 149.85 1647.24 155.221 Z" fill="#000000" fill-rule="evenodd" fill-opacity="1" /><path clip-path="url(#clip850)" d="M 0 0 M1672.27 145.707 L1672.27 149.734 Q1670.46 148.809 1668.52 148.346 Q1666.57 147.883 1664.49 147.883 Q1661.32 147.883 1659.72 148.855 Q1658.15 149.827 1658.15 151.771 Q1658.15 153.253 1659.28 154.109 Q1660.41 154.943 1663.84 155.707 L1665.3 156.031 Q1669.83 157.003 1671.73 158.785 Q1673.65 160.545 1673.65 163.716 Q1673.65 167.327 1670.78 169.433 Q1667.94 171.54 1662.94 171.54 Q1660.85 171.54 1658.58 171.123 Q1656.34 170.73 1653.84 169.92 L1653.84 165.521 Q1656.2 166.748 1658.49 167.373 Q1660.78 167.975 1663.03 167.975 Q1666.04 167.975 1667.66 166.957 Q1669.28 165.915 1669.28 164.04 Q1669.28 162.304 1668.1 161.378 Q1666.94 160.452 1662.98 159.596 L1661.5 159.248 Q1657.54 158.415 1655.78 156.702 Q1654.02 154.966 1654.02 151.957 Q1654.02 148.299 1656.62 146.309 Q1659.21 144.318 1663.98 144.318 Q1666.34 144.318 1668.42 144.665 Q1670.51 145.012 1672.27 145.707 Z" fill="#000000" fill-rule="evenodd" fill-opacity="1" /><path clip-path="url(#clip850)" d="M 0 0 M1680.44 144.943 L1684.7 144.943 L1684.7 170.869 L1680.44 170.869 L1680.44 144.943 M1680.44 134.85 L1684.7 134.85 L1684.7 140.244 L1680.44 140.244 L1680.44 134.85 Z" fill="#000000" fill-rule="evenodd" fill-opacity="1" /><path clip-path="url(#clip850)" d="M 0 0 M1710.67 157.605 Q1710.67 152.975 1708.75 150.429 Q1706.85 147.883 1703.4 147.883 Q1699.97 147.883 1698.05 150.429 Q1696.15 152.975 1696.15 157.605 Q1696.15 162.211 1698.05 164.758 Q1699.97 167.304 1703.4 167.304 Q1706.85 167.304 1708.75 164.758 Q1710.67 162.211 1710.67 157.605 M1714.93 167.651 Q1714.93 174.271 1711.99 177.489 Q1709.05 180.73 1702.98 180.73 Q1700.74 180.73 1698.75 180.382 Q1696.76 180.058 1694.88 179.364 L1694.88 175.22 Q1696.76 176.239 1698.58 176.725 Q1700.41 177.211 1702.31 177.211 Q1706.5 177.211 1708.58 175.012 Q1710.67 172.836 1710.67 168.415 L1710.67 166.308 Q1709.35 168.6 1707.29 169.734 Q1705.23 170.869 1702.36 170.869 Q1697.59 170.869 1694.67 167.234 Q1691.76 163.6 1691.76 157.605 Q1691.76 151.586 1694.67 147.952 Q1697.59 144.318 1702.36 144.318 Q1705.23 144.318 1707.29 145.452 Q1709.35 146.586 1710.67 148.878 L1710.67 144.943 L1714.93 144.943 L1714.93 167.651 Z" fill="#000000" fill-rule="evenodd" fill-opacity="1" /><path clip-path="url(#clip850)" d="M 0 0 M1745.25 155.221 L1745.25 170.869 L1740.99 170.869 L1740.99 155.359 Q1740.99 151.679 1739.56 149.85 Q1738.12 148.022 1735.25 148.022 Q1731.8 148.022 1729.81 150.221 Q1727.82 152.42 1727.82 156.216 L1727.82 170.869 L1723.54 170.869 L1723.54 144.943 L1727.82 144.943 L1727.82 148.971 Q1729.35 146.633 1731.41 145.475 Q1733.49 144.318 1736.2 144.318 Q1740.67 144.318 1742.96 147.096 Q1745.25 149.85 1745.25 155.221 Z" fill="#000000" fill-rule="evenodd" fill-opacity="1" /><path clip-path="url(#clip850)" d="M 0 0 M1765.53 157.836 Q1760.37 157.836 1758.38 159.017 Q1756.39 160.197 1756.39 163.045 Q1756.39 165.313 1757.87 166.656 Q1759.37 167.975 1761.94 167.975 Q1765.48 167.975 1767.61 165.475 Q1769.76 162.952 1769.76 158.785 L1769.76 157.836 L1765.53 157.836 M1774.02 156.077 L1774.02 170.869 L1769.76 170.869 L1769.76 166.933 Q1768.31 169.295 1766.13 170.429 Q1763.95 171.54 1760.81 171.54 Q1756.83 171.54 1754.46 169.318 Q1752.13 167.072 1752.13 163.322 Q1752.13 158.947 1755.04 156.725 Q1757.98 154.503 1763.79 154.503 L1769.76 154.503 L1769.76 154.086 Q1769.76 151.147 1767.82 149.549 Q1765.9 147.929 1762.4 147.929 Q1760.18 147.929 1758.08 148.461 Q1755.97 148.994 1754.02 150.059 L1754.02 146.123 Q1756.36 145.221 1758.56 144.781 Q1760.76 144.318 1762.84 144.318 Q1768.47 144.318 1771.25 147.234 Q1774.02 150.151 1774.02 156.077 Z" fill="#000000" fill-rule="evenodd" fill-opacity="1" /><path clip-path="url(#clip850)" d="M 0 0 M1782.8 134.85 L1787.06 134.85 L1787.06 170.869 L1782.8 170.869 L1782.8 134.85 Z" fill="#000000" fill-rule="evenodd" fill-opacity="1" /><path clip-path="url(#clip850)" d="M 0 0 M1797.38 166.933 L1805.02 166.933 L1805.02 140.568 L1796.71 142.235 L1796.71 137.975 L1804.97 136.309 L1809.65 136.309 L1809.65 166.933 L1817.29 166.933 L1817.29 170.869 L1797.38 170.869 L1797.38 166.933 Z" fill="#000000" fill-rule="evenodd" fill-opacity="1" /><path clip-path="url(#clip850)" d="M 0 0 M1854.32 134.85 L1854.32 138.392 L1850.25 138.392 Q1847.96 138.392 1847.06 139.318 Q1846.18 140.244 1846.18 142.651 L1846.18 144.943 L1853.19 144.943 L1853.19 148.253 L1846.18 148.253 L1846.18 170.869 L1841.89 170.869 L1841.89 148.253 L1837.82 148.253 L1837.82 144.943 L1841.89 144.943 L1841.89 143.137 Q1841.89 138.809 1843.91 136.841 Q1845.92 134.85 1850.3 134.85 L1854.32 134.85 Z" fill="#000000" fill-rule="evenodd" fill-opacity="1" /><path clip-path="url(#clip850)" d="M 0 0 M1872.91 148.924 Q1872.19 148.508 1871.34 148.322 Q1870.5 148.114 1869.49 148.114 Q1865.88 148.114 1863.93 150.475 Q1862.01 152.813 1862.01 157.211 L1862.01 170.869 L1857.73 170.869 L1857.73 144.943 L1862.01 144.943 L1862.01 148.971 Q1863.35 146.609 1865.51 145.475 Q1867.66 144.318 1870.74 144.318 Q1871.18 144.318 1871.71 144.387 Q1872.24 144.434 1872.89 144.549 L1872.91 148.924 Z" fill="#000000" fill-rule="evenodd" fill-opacity="1" /><path clip-path="url(#clip850)" d="M 0 0 M1889.16 157.836 Q1884 157.836 1882.01 159.017 Q1880.02 160.197 1880.02 163.045 Q1880.02 165.313 1881.5 166.656 Q1883 167.975 1885.57 167.975 Q1889.12 167.975 1891.25 165.475 Q1893.4 162.952 1893.4 158.785 L1893.4 157.836 L1889.16 157.836 M1897.66 156.077 L1897.66 170.869 L1893.4 170.869 L1893.4 166.933 Q1891.94 169.295 1889.76 170.429 Q1887.59 171.54 1884.44 171.54 Q1880.46 171.54 1878.1 169.318 Q1875.76 167.072 1875.76 163.322 Q1875.76 158.947 1878.68 156.725 Q1881.62 154.503 1887.43 154.503 L1893.4 154.503 L1893.4 154.086 Q1893.4 151.147 1891.45 149.549 Q1889.53 147.929 1886.04 147.929 Q1883.82 147.929 1881.71 148.461 Q1879.6 148.994 1877.66 150.059 L1877.66 146.123 Q1880 145.221 1882.19 144.781 Q1884.39 144.318 1886.48 144.318 Q1892.1 144.318 1894.88 147.234 Q1897.66 150.151 1897.66 156.077 Z" fill="#000000" fill-rule="evenodd" fill-opacity="1" /><path clip-path="url(#clip850)" d="M 0 0 M1926.62 149.92 Q1928.21 147.049 1930.44 145.684 Q1932.66 144.318 1935.67 144.318 Q1939.72 144.318 1941.92 147.165 Q1944.12 149.989 1944.12 155.221 L1944.12 170.869 L1939.83 170.869 L1939.83 155.359 Q1939.83 151.633 1938.51 149.827 Q1937.19 148.022 1934.49 148.022 Q1931.18 148.022 1929.25 150.221 Q1927.33 152.42 1927.33 156.216 L1927.33 170.869 L1923.05 170.869 L1923.05 155.359 Q1923.05 151.609 1921.73 149.827 Q1920.41 148.022 1917.66 148.022 Q1914.39 148.022 1912.47 150.244 Q1910.55 152.443 1910.55 156.216 L1910.55 170.869 L1906.27 170.869 L1906.27 144.943 L1910.55 144.943 L1910.55 148.971 Q1912.01 146.586 1914.05 145.452 Q1916.08 144.318 1918.88 144.318 Q1921.71 144.318 1923.68 145.753 Q1925.67 147.188 1926.62 149.92 Z" fill="#000000" fill-rule="evenodd" fill-opacity="1" /><path clip-path="url(#clip850)" d="M 0 0 M1974.79 156.841 L1974.79 158.924 L1955.2 158.924 Q1955.48 163.322 1957.84 165.637 Q1960.23 167.929 1964.46 167.929 Q1966.92 167.929 1969.21 167.327 Q1971.52 166.725 1973.79 165.521 L1973.79 169.549 Q1971.5 170.521 1969.09 171.031 Q1966.69 171.54 1964.21 171.54 Q1958 171.54 1954.37 167.929 Q1950.76 164.318 1950.76 158.16 Q1950.76 151.795 1954.19 148.068 Q1957.63 144.318 1963.47 144.318 Q1968.7 144.318 1971.73 147.697 Q1974.79 151.054 1974.79 156.841 M1970.53 155.591 Q1970.48 152.096 1968.56 150.012 Q1966.66 147.929 1963.51 147.929 Q1959.95 147.929 1957.8 149.943 Q1955.67 151.957 1955.34 155.614 L1970.53 155.591 Z" fill="#000000" fill-rule="evenodd" fill-opacity="1" /><path clip-path="url(#clip850)" d="M 0 0 M1996.8 148.924 Q1996.08 148.508 1995.23 148.322 Q1994.39 148.114 1993.37 148.114 Q1989.76 148.114 1987.82 150.475 Q1985.9 152.813 1985.9 157.211 L1985.9 170.869 L1981.62 170.869 L1981.62 144.943 L1985.9 144.943 L1985.9 148.971 Q1987.24 146.609 1989.39 145.475 Q1991.55 144.318 1994.62 144.318 Q1995.06 144.318 1995.6 144.387 Q1996.13 144.434 1996.78 144.549 L1996.8 148.924 Z" fill="#000000" fill-rule="evenodd" fill-opacity="1" /><path clip-path="url(#clip850)" d="M 0 0 M2013.05 157.836 Q2007.89 157.836 2005.9 159.017 Q2003.91 160.197 2003.91 163.045 Q2003.91 165.313 2005.39 166.656 Q2006.89 167.975 2009.46 167.975 Q2013 167.975 2015.13 165.475 Q2017.29 162.952 2017.29 158.785 L2017.29 157.836 L2013.05 157.836 M2021.55 156.077 L2021.55 170.869 L2017.29 170.869 L2017.29 166.933 Q2015.83 169.295 2013.65 170.429 Q2011.48 171.54 2008.33 171.54 Q2004.35 171.54 2001.99 169.318 Q1999.65 167.072 1999.65 163.322 Q1999.65 158.947 2002.56 156.725 Q2005.5 154.503 2011.31 154.503 L2017.29 154.503 L2017.29 154.086 Q2017.29 151.147 2015.34 149.549 Q2013.42 147.929 2009.93 147.929 Q2007.7 147.929 2005.6 148.461 Q2003.49 148.994 2001.55 150.059 L2001.55 146.123 Q2003.88 145.221 2006.08 144.781 Q2008.28 144.318 2010.37 144.318 Q2015.99 144.318 2018.77 147.234 Q2021.55 150.151 2021.55 156.077 Z" fill="#000000" fill-rule="evenodd" fill-opacity="1" /><path clip-path="url(#clip850)" d="M 0 0 M2034.53 137.582 L2034.53 144.943 L2043.3 144.943 L2043.3 148.253 L2034.53 148.253 L2034.53 162.327 Q2034.53 165.498 2035.39 166.401 Q2036.27 167.304 2038.93 167.304 L2043.3 167.304 L2043.3 170.869 L2038.93 170.869 Q2034 170.869 2032.12 169.04 Q2030.25 167.188 2030.25 162.327 L2030.25 148.253 L2027.12 148.253 L2027.12 144.943 L2030.25 144.943 L2030.25 137.582 L2034.53 137.582 Z" fill="#000000" fill-rule="evenodd" fill-opacity="1" /><path clip-path="url(#clip850)" d="M 0 0 M2071.08 156.841 L2071.08 158.924 L2051.5 158.924 Q2051.78 163.322 2054.14 165.637 Q2056.52 167.929 2060.76 167.929 Q2063.21 167.929 2065.5 167.327 Q2067.82 166.725 2070.09 165.521 L2070.09 169.549 Q2067.8 170.521 2065.39 171.031 Q2062.98 171.54 2060.5 171.54 Q2054.3 171.54 2050.67 167.929 Q2047.05 164.318 2047.05 158.16 Q2047.05 151.795 2050.48 148.068 Q2053.93 144.318 2059.76 144.318 Q2064.99 144.318 2068.03 147.697 Q2071.08 151.054 2071.08 156.841 M2066.82 155.591 Q2066.78 152.096 2064.86 150.012 Q2062.96 147.929 2059.81 147.929 Q2056.24 147.929 2054.09 149.943 Q2051.96 151.957 2051.64 155.614 L2066.82 155.591 Z" fill="#000000" fill-rule="evenodd" fill-opacity="1" /><path clip-path="url(#clip850)" d="M 0 0 M2106.59 140.383 L2094.79 158.832 L2106.59 158.832 L2106.59 140.383 M2105.36 136.309 L2111.24 136.309 L2111.24 158.832 L2116.17 158.832 L2116.17 162.721 L2111.24 162.721 L2111.24 170.869 L2106.59 170.869 L2106.59 162.721 L2090.99 162.721 L2090.99 158.207 L2105.36 136.309 Z" fill="#000000" fill-rule="evenodd" fill-opacity="1" /><path clip-path="url(#clip850)" d="M 0 0 M2136.75 140.383 L2124.95 158.832 L2136.75 158.832 L2136.75 140.383 M2135.53 136.309 L2141.41 136.309 L2141.41 158.832 L2146.34 158.832 L2146.34 162.721 L2141.41 162.721 L2141.41 170.869 L2136.75 170.869 L2136.75 162.721 L2121.15 162.721 L2121.15 158.207 L2135.53 136.309 Z" fill="#000000" fill-rule="evenodd" fill-opacity="1" /><path clip-path="url(#clip850)" d="M 0 0 M2154.88 166.933 L2162.52 166.933 L2162.52 140.568 L2154.21 142.235 L2154.21 137.975 L2162.47 136.309 L2167.15 136.309 L2167.15 166.933 L2174.79 166.933 L2174.79 170.869 L2154.88 170.869 L2154.88 166.933 Z" fill="#000000" fill-rule="evenodd" fill-opacity="1" /><path clip-path="url(#clip850)" d="M 0 0 M2194.23 139.387 Q2190.62 139.387 2188.79 142.952 Q2186.98 146.494 2186.98 153.623 Q2186.98 160.73 2188.79 164.295 Q2190.62 167.836 2194.23 167.836 Q2197.86 167.836 2199.67 164.295 Q2201.5 160.73 2201.5 153.623 Q2201.5 146.494 2199.67 142.952 Q2197.86 139.387 2194.23 139.387 M2194.23 135.684 Q2200.04 135.684 2203.1 140.29 Q2206.17 144.873 2206.17 153.623 Q2206.17 162.35 2203.1 166.957 Q2200.04 171.54 2194.23 171.54 Q2188.42 171.54 2185.34 166.957 Q2182.29 162.35 2182.29 153.623 Q2182.29 144.873 2185.34 140.29 Q2188.42 135.684 2194.23 135.684 Z" fill="#000000" fill-rule="evenodd" fill-opacity="1" /><path clip-path="url(#clip850)" d="M 0 0 M2224.39 139.387 Q2220.78 139.387 2218.95 142.952 Q2217.15 146.494 2217.15 153.623 Q2217.15 160.73 2218.95 164.295 Q2220.78 167.836 2224.39 167.836 Q2228.03 167.836 2229.83 164.295 Q2231.66 160.73 2231.66 153.623 Q2231.66 146.494 2229.83 142.952 Q2228.03 139.387 2224.39 139.387 M2224.39 135.684 Q2230.2 135.684 2233.26 140.29 Q2236.34 144.873 2236.34 153.623 Q2236.34 162.35 2233.26 166.957 Q2230.2 171.54 2224.39 171.54 Q2218.58 171.54 2215.5 166.957 Q2212.45 162.35 2212.45 153.623 Q2212.45 144.873 2215.5 140.29 Q2218.58 135.684 2224.39 135.684 Z" fill="#000000" fill-rule="evenodd" fill-opacity="1" /></svg>
